<mxfile host="65bd71144e">
    <diagram id="dhmei4fHUEa7SQFI6Tv7" name="Page-1">
        <mxGraphModel dx="1204" dy="790" grid="1" gridSize="10" guides="1" tooltips="1" connect="1" arrows="1" fold="1" page="1" pageScale="1" pageWidth="1100" pageHeight="850" math="0" shadow="0">
            <root>
                <mxCell id="0"/>
                <mxCell id="1" parent="0"/>
                <mxCell id="2" value="" style="shape=image;verticalLabelPosition=bottom;labelBackgroundColor=none;verticalAlign=top;aspect=fixed;imageAspect=0;image=data:image/png,iVBORw0KGgoAAAANSUhEUgAAAT4AAACfCAMAAABX0UX9AAAAflBMVEX///9ssz5grihqsjtnsTViryzv9utosTdksDHX6c54uFH8/fuy1aDr8+dhrilerSS+26+YyH31+fLm8eBvtEKEvmLD3rXh7tqOw3CkzY3Q5cW82qzc69Ss0pj5/PfJ4b2RxHSdyoSoz5J+u1p1t0yhzImJwGhRqABZqxd9u1dz6HoFAAAITklEQVR4nO2aaZequhKGIYMJg0QRUEHB+er//4M3A1NodXefw1nSe9XzoVtjCPBSqapUcBwAAAAAAAAAAAAAAAAAAAAAAAAAAAAAAAAAAAAAAAAAAAAAAAAAAAAAAAAAAAAAAAAAAABgcpReuEzT8zm9bbPVpy/mlxFkqaCEMSxhhAt8AgW/TXyinLl9MEFn79OX9UsoKHG/wtBtrn+eZ+Oe7oovf9GTmT/oE/G0gNFCdVgeRj3fKcJYxKMO+UHyiL1QT4IOjrNKyagn9LHr0nzUIT9Hdn8tnoSfg2R+HPVmD9JTiL8kMGXirXpyAovQyY9jnnKWCLEfc8DP4f1JPZcfZFbDxj3rejbueJ9iRvGf1Lupfue/ZK6NzONN1NCgpe5XFB++0ElSvMpYGr+HatlW6dPjyzgu+1+bD/EsDvr9gsDu0XxtO5Wl1d+0zVdtdtN++Nrtc5Tv1cMobecs/np0HPqMUna55uae1hd6Vj4t3l8oEuRctLcaEn5VHZaYX+SIwYHrtDm+EV+dYH28EM4e+9genCKEkpMacX4R7k615llVTEfAPX9nedGll66kX5xfiLj2m5hQsldW5TKXSCPNorqd83qxsrtjV2TOVTDsMl8uOqiLI3nEhstDZFIuCNb90aIdvKDN4ELa/4PID7J15YXZejG8kE8RPFup6YtmhIqDta7aD9dtW9Q7gOPAmakYzp1TL5TXjjOUT4ldr8bUhUmbIzk6lv/RPO2eoUyRDJuoG0RsHfVNyPXjwtkudpPJt6vB3JWiyQkjIuwfQm8wR4aZn054CBLC2FqUOzOlZxLKv4xTbp4M1fqF8gv2TZBS9qlXHVI+/aRSaVmM1RGsTqY3RlHCdR0jCtUZkJQvjxdFORnr2/TDLqNkE1a71ax82nd+sb+f5bH8uAqCVXFGjN1XRj5XihHdijy7GgGFMloln6vnJ0XKO/blk+0cb443050d1NgLbXuEbSsvW1LpEtxaPifcxfuppFBlz/PJKJG/8sm6PYjsNml87FZ/WR/OlVPL57KLub9ySbXvCmr51Mz2Kx0dLPlcE9zLo74aUTYBjR7N9czP5mgtn7PLnz/dD7DrHAxJdq/7rfVf1yqRzKVW5GR1M/Jhv224KkH4opUvavpb8tHGqR7UXKDyOgp93LUdJ2WdfBOiaK3PuKgXBJX+97AmzVy5PmwpauSjveXYRcqEz418vFW7Lx9rE0oTejLzM+75iphPUr5rE3jp9l230Ii0sQucWj4e9gTU8pH+UDo0RXHt+zqz7MvHK6tZGmuM7GYZ9ckU5VvWkYMc3vWK61+XdsKw1SbB6S1rFNTyRX0noJ2rbNHyUVunRr5o3Tar2Svl2ynRad+wV2iK8tWBV3v316T1/S0rqzlIjO0yLm5GWC0ftca6mLqoka/7pS8f6nzC0sinbBYn1sn4hOXjbxOpovFNA/mcMkW19TKkl15aPnttd8Z6Guq8r7dotuTrVKnly6RY+GGNk+Dpykff9fH+11z17cvmTp6KencOC6/xfZb1PTr5WC/t/oZ8dpbJpmh9OlNwybtC8vreLKMc/0m6OlukZm2Ko5mRT1h1UNfopOTrx5T38nnK97H+Y4jFFOU7kkHo+8IadZOIPy8Qx5mv07S9kY/3l8areq36M/lWwo4o0szpFOULuTu8UBtPdAEwvr/spuo2Mr0zvs/v/bBVPs91fiifriRYc+KMpyifniVvLisUoktDct/+sT+5TJpbp83tbDdmpHT4oXw6H+2devGH6/wQ8dvLKjdU9FK9pb01to/cbtITvXio17xt0W7FlNGoGsoP5dOyu7yZFVk97tTkM5OCPl/tVoSInlcMhNVtdXcx9Stjgiei17+1fC7d7GT7fK83oXRK/kP5nKVepVD9jtLuUK/MpyefWZs/2wRay6Qu6mcqGbd+3+k1G6XpdX9NuDEyU++Tzo5RmmCk4xLmqkDyU/lKXX12CSIJjZjMobWPntzeZqwerFrTD9jdBCOJ9bT5YFt7g+paOtG3Sq9N2rzWRlfvfjKqsx0tX1dBaeQL8NNVh2TevO1livgeHy7jpoFOXZAdeldhEjEs7GzwdB8++yqhbbEVC1WxMYmLdHlNJQLTi3kEaj+vr78qtYq1SQt7iaIKGXX5aua3+888mZtMcLS7Hg1TdupiapxvE0SwdGv2EiO/X4eHysYNjzghnCJfhxgjX+AEW0qlUXLkNm6hZJTzuD8cidQarrgT0SuVzQWnbhPRswtSg0dkb/J7thnhfsdG5whko655lp8eEZVTkaDLIJP2EHo6c8pdFu7Dqp7ljXyyPQ+3p6IXa8pFYQ2wqzeevL11plmxMLVkreFKDl6oLZc8GubjUyHQyQV3w6UrlHSYUHochuJCoO9sz3Ty/VuOdx52NflKh14+mSJ9H09I15xyrmTEBCXbL4WB3YOS27NDh4wmXy5dCheHxW4Wz9bZmQ6y8UkRIjd24os0PP4Iv1QFVoWPME6+9eRHlU/vdiIa1Vvu/FsP8BPo5UTBcRpWWVEssqrKPc/Lqyzc3lz1IgHm30tYx5u8qRi8pR5NVj0Z4xy9cMCEG6iBc8LM3uw3N1YDmWsM6nT/FO8mOKkzF+mO2RTDRst8lb1+14W43872qztCb/Y7f0RcHf1ICCTo4zqZtzJekN1fveWH0eYHszHejfv2UzmLJxlvh8xu6OlLppy8qaUCHZ6PhhaIeXT6FQ9/EnhLnTjX0jEuLgWI9xOC/JQyoaCXZTG58tqvICjLMpjO+68AAAAAAAAAAAAAAAAAAAAAAAAAAAAAAAAAAAAAAAAAAAAAAAAAAAAAAAAAAAAAAAAAAAD/Ff8HON5nz0oJk18AAAAASUVORK5CYII=;imageBorder=#000000;strokeWidth=2;" parent="1" vertex="1">
                    <mxGeometry x="280" y="396" width="158" height="79" as="geometry"/>
                </mxCell>
                <mxCell id="3" value="" style="shape=image;verticalLabelPosition=bottom;labelBackgroundColor=none;verticalAlign=top;aspect=fixed;imageAspect=0;image=data:image/png,iVBORw0KGgoAAAANSUhEUgAAAb8AAABxCAMAAAByWF0wAAAB6VBMVEX///8AAACsrKxycnLn5+fJIDfT09PMIjb3miM2Njb6+vrh4eHpeCbq6urv7+/39/e1IEyenp7GIDq8IEXPz8+lpaXGxsZ5eXm9vb2MjIyDg4PDID25IEiwIFFLS0uWlpYxMTFERESuIFNeXl4eHh5mZmYnJyfhYCq/IEGEJ3eioqISEhJjY2M1NTXmcCfkaCndVCzZRy/zkSRVVVVJSUmpIFjbTy3WPzDIAB6nIFrfWiu1tbV9KHzyiQf3niz1lCT1kgDiXh/dTxfYPRnwyc356OrHABvpsbf129/AACiKJXP95tDzmD/4yaX98ej827r6v4D4qlP4wpX86Njys4/4qEXpcw/418X4smfwq4HsjE/0olj5uGrtijr1yK/vjDToejfyuZ3upIPul1zoiWPldEbunnHniW/olYPtp5TwvbbcRQD10Mbjd17dXUPus6blZADnoKDWSk3ZZm/WNR7cYVbgenPlko7TMi3QPk7UU17fgYnaeoPmpqvNBBfUXGfJY3rYkJ/Ga4TerbrUlKa5UnjIeZLLp8GxN2edSYWTHGimY5WQFmardqOYNHncwNK6aZG8kLKPPYKaXpZyAHCebqNwAHV/MobKs8urhLBxLIiLV5xLCnyhlrYWAGBJOnljYIimproeG2A3oc1wAAAWRklEQVR4nO1djV9TR7pOSEgkgYSPGCGAEgREQPxAlAi6IKQk1tV2r3W7vXvd9t66W61drdoW/Kiy+FG3VcoVLNTb3e79S+/MnJNkzplnPk5Cfv645vn9KpRzzmTOPPO+7zPzvufE56uhhhpqqGHrEZ2sg2hv8tRMTNJMXXukSh2vgSCY9kuxx0M7Q/JmBuJV630NCvr8/pBxMx2qZuqq2P+3HFHVuPuHtqaZyWrewduNFuXAp0yb2a1sxtyMa/CIMeXApw1bSSpb8dfiX7UQVw/8sGEzDcpWeqp4A285Qmr+/DGjVtrVjYxU+SbeYtRp+IsatdKnbsTLMqQGT9ij4S9h0ohuEiSrfRdvL9Tyxe/fadLIsKYRMydcQxnQeD6jBcROTRumIqgGzwhqht5/1KARXRs1+VI1aIQjgb4N9Q6AvyZfqgidfPH7tbkDzQrSX5MvVYR624tCu4DQT4GafKkadMrR72/XtBDTtmDggmsoD1r54vd3aJpIaVuoyZeqQS9f/AF1CwbmV5MvVYM+dvkH1C3s0rdQky9Vg16+aKJXk0ED3qpozHGuVlZjMPr+oKqB/konQNl499TJk2d/W522twvURQ82VO7PpIG9Vel6ZPo3vzly5OTZc1VpfZvAQL6oa4/2GlxfHflyfnoHJfDIkTIIPHf+/P8P2pU1YwUodrB1yV8Gc/kSC0ZCiWQiFArGtaHtvekdOxiDZ42bL+C3O6anT75rcGKc9GZycrI9Gd3CSBsJxhKJBLlF8VCiZYiiZdIXbRmyEj+hlhZF7ZcuecTQX+H1yvhpIZ6sS/W7GmsYSU0qyp7e37HDIvDk7/Tt8zj3PmGeXPZvyrMioZ39A1xv+va2mGWyVQjWBca4fM/uVNI5L4pHmKygN0/3Jg/IGzQZfkUJU8Lkcm3yKLonLb96b52k9OkUYe+URaAn43h32uZdYbfRjgOoLz1D+jKs6GRLh42WSWfuexKJ/QA/K/Z0EN76OlJJltWjdhfwq/yfwe4LhfR6xbhzDCjvN6R34SPICs9NW/xRU7qg/AQnfjddtFuZB51U3NYuzVrIVcbVUDwQl660+/lJEbL2K1lKIGXHJ7n/NJIv8gyE2eUK+RLbo99+pRgTXRfj7wNKxdnGi+ox5fGeRR9zoNjv7tR0KaWydmE1VaBbmWLjBEKdlS9g1ZhjdDoMqxIIRvJF3kCP0dVS+RI3/HgKoQycucH3GX2NF3+vGFIHPrToo373yJF/ByfU6SfUsLwiKCK5+aSm1VKNSsDydoTuhL/PN+kfG1LVzpqof7+UgUmzq2UeR1d04cQu19XnKRMfMvoaL/5BeofO4f3oCKPvAxl/CbMZKfUooh5gGkQ/zEUXmfbvpj/6/buJC00M+4O7VAUQhmMnccC6yhkLku3TmMnOHQ8XgZeOEBL+yOhrbPxIfoscIh9d/A9K3/unmP888qH7eMC0L7ItfXFKEu0dHAAtuGG7uIitVgbIj2H2QcOVyxdJBsnQfrB8MYy8PJwu9NLFj8/u+OOfGH2NN0zK8899fLGxkZJ+Cse/kFksZnB7AxviBAiEFE/VcbA1vi1fYvQHneCx+BbIF8kC0PDiFnSth8hXgmMdeYmQ0fgH+s/o6OgNgwAY+Xh0tLHx7PR7pwr65bzjuEEmhgM2CjP3C2HFqJJ8idIx2kM9sjf50gD6ABeAQFHFUEREwdMg5wTg8FqEv9HRC6MWblxSMcdA6aMEvvdBQYCedGyhGUqBIpCI0RcCyWGNcX9RvjAu2W9yvQt2T3pgPhY0IUotYh/IpYLaF29TvQTeS35yg9DB/jl48ODMf2rpuzxz8CAh+sJ//YniLPmPly9xuF5XAsgyzTNYajDvEkwya4slyf9FkjH6m2LXB7RCpNVR8a8gvIi22wKJ6dnC2+RNmVB3cOYTQgrFzKc6/i6zM29c+PPFRhsXOZuNmUkxB0AILHdeMujKjEQg+RKCzk3cABGtlOpMEKtF+SLJ+KZTk4lgPB6PJdo7JIqN1+3XCSEzn1BS9hFc1tzqFzP79lEzvXBjtMhfyamUQx9ySka7wTJ4z9IA+UK9MAhiogQSi5aocYCAKsqXNOr9LucmN34ehp/yhL99M5/sK0B9p385fYKcM/PppRtWEKT0lTbd4pLpMtA/1FI3tEu20BHSahEPAlZ9c2YAo00nAQiAAgmiDY3RP4+IlwryBe0kHRWcPMwL8zr4OrGomeuX9+07waBcQHx2+hA5Zd/laywG2gyWzCeNPmtvezFwx5NQ3PS5P0a5HNs7NBkNBtuHpPUKu1V3AAHMnTlhcRoJ61VxocPsB3TLLV+QPEJTD61t+G5cP33ixOkrX1DuDh06dFrF35VZcgY57/fUh1oM8tEPjWjAlfNKINNyeyX5cmyMyxPJdg09P+ODzD2Eb8i9hSNaB1sPgWxuj/tTQbUoXksBp8bvI1wl/J347DNK3qFDx1T8XZ09duzYoUOfX/t0xiKQMljasQGiY0DUfHEQIt3LKtmiNu2SD5Kkt/wOMJC5S/ox7IrVop9k4wcip3vpD5ZIkvQiGFfejV89TXj74srpQ8co/hrPym7z2uzhw+SM2etXWBC0TPBGce0HUphwdwz5DZdvkQRKUQFgAS67ARnAaFtDCcSDs6fiBLLEE7Atd94ARD9Jeh70go+l16hVHWO2dfjw7GdffiO5y+zs8cMEs3+59jkLgozA0nofzCdJvTkYLqddSeQL2r9A8VRTZisCmLvlycD0cO42CIHTDuVgArp7L76mQqabAX+8W6P8HZ6lxkVw+8uFm5JmFo8fZwRm7SBITXDmz8XDoieRPi4gelCnAsXyBeZuUN2CIId0AKNtrSGB9nP0VPx06zqwJSOs/AX+pNMOTC/ei+coc7ev3Wb8/fXmwgR2oLcmblICb+e+YkGQMThTWi2KU1Ve7CNuLjkdLUyn4afP0UbbmPSDMeLA3JtkrTskRtp91K4SACFCYMet0fqlj5aJ+qWBP5xl/F09zhAOhyfmUCNfToSpAd6+emWWBsFjFoGljU/hM/rku41i1HBGbiRfZKSAt+VoHjMRgFZYsrtyCFBRJttCGvhdcTbHo9H2UNQGqqGzAbyRYxJlbzNevrLpC0/cB43Mv0OO3FxY+Nrys5YJnr5WPC5qJEWto7jmdZIN9h2luWuwdNM95uUGMPfCFBBTELxzFuy2YBcgYsHkkRHALp7DicepX1z45puFhZuUvnD+rthGNh9m/B3P2kGQMvj51VIbwkcoa63EHjmcB/Bn0j0VsNHh9Q1/ir0uMHaliSSyVJBhIH1t9PIYBLQWdq7KFsM3jy98ff+2RR/kb5Edaf029/VCkcDPS9YHxLCy1FgUMDx/yJ9JcwfA/ry+4S8tH22w9CoRIRwqOm7g1Mt9bR3UAs7G7oTD9TdvXl0I2/zdFyLXPWZ+xLPOf7tACSQMzn7BJ/1EP6OsJBV7xLtHMOMapE2BdJXZwBSBViuF6QS6UvRdovkVrgLyxbMmtluChSiudf4tyk4+N2HzNzG35Gpl3j50Jxu+SXCcUPjVl/MPSu4TqHgVfyA88EtXo737AkRT7jEcmwIU8gUdK67SBNqLqgJsC3nVVBSxhCQ779pmu5tnrLXa/C0u3XMez9r0TWTv5MMFTLwTLp0BNj73Smv94yglwoeHtHhY6j7BVDd+z6oN1V4XWEAUmBDvoujVQPLd+OW99ueGdo7IE+GuAH+f8jMx/8Bm5pY7AC6G6xlj8/cnwiV8W1pm4Ae/Bw40IODKFj7nKh6Vex9gIF7lC9jrKpm76FvTsiOl7ZPy5Us8kWwfGtmtqWFwzWbmHvN37xaMK+/0n0v5+npK4IMsT1/+TukMb/WnENz9AUrkGT2w0vL6cAwQG6XepIVjfbJ7LrUIpqhWvkTbO0bGDLPfrsasyPdg3uKvvt65gM9N1FOE89lFjr4wv0sj3qRncPoTaAZ5RQTYBfaq9EBvSmoKRCDWVVH0lMwPuCNlSis4FDApbC3Cnd+Mv8MWB3MWUYSquXnu6KL1R7f35E4xeXBfA/7BLiBf5I+6iOPboxoqAGDu3GiDBQSzb3HelK7xJF+iezyXnLgDfKQ+TAnKFei7tXirdPBuvrW1lfzxQfadeo4+PkmxBe6TV8Ti7ouCEtFVea2eAPJlRHmUxlfRxDgXAWqXJPIlsrOcOlchwD+g/OXn2Q+Czvp88VAu39lJCcxn74TrCwTm87yBei74BOB3FcWjCkUpnmz0llUOSvmCrJNuzwlmz09AIF/gloKXp454CAH+HlUo+SUiVFot5IsR8E5nJyUwf3/eDoPU097N8RESJUu8gmPIk6IEJ3vdfVHKFxTL0shD8ttNwCGi3ILZ4wAAwtL6PuWv/s5cnpFHCKsvKND51kFGIFm5F7xrePHeg3yOu9royX0NOKMB8kX+2Dg42esb/kBv+HCLik/EgMFnR8x2X5rQJr0RxEyMTRz1lTYeWAfigwTkf/O5e/U0CtpK1ClQK6qVtsEZjejPFJko0QP16BlzAMw+R6rO5K08zhlmVEdiNOmH4YJCjCbZCWp1+dyiRR7lzDrwZLCNMti6ZDFs8Zevzzmu1r5zVg8+eogb0op8rJg59/qGPyBQHKkTI3HmqHwA4yHIFy19PamWBHUDYPqAxdQgc5rz9yh1DHm2ust2trUxAiODLAoyIZq/6zIH/VsTdRjmp694WFFPLZ7scaNKI18MnyxzjIiBfFG8q6kn0FGXKDlw2frFiXuEv8HOeyTaMbS1dTIP+bCtixDYlp9bau3stBm8Nb/kqq+AxWLpgB57G3p6enYHUo4JBW5NnorydDIGkC+OJkxei+WcYOAEV0yWPV2VTiXdmw9gMoCbuM+Ia8u1DrZZGFwmf80NdnURAgcfZlutMMhWEhN3XBeDjoyV/549T4qkOvLF0YTJ5oRj0IF86XF9Jpzxwy1o40j0nyia5OopfZ1Zmz7CGhWgD7so2jrjDwdtHUMZnMi5Lha7Is/W6SH6M0U5YFXki6sJ/faIc8Wply9w4bAHizSRargY7mRGN0ccpoW2J4TUtubmZvLro7lOKwoyBuvvua8V+1J2rYAPyRdFJYZ48lbLF4P3grrmF5AvToJRtqZPsmoF58K94IfU6tqWlm3+mrsIf39rpuhqjnRZLtVeSgjVheJHVPKWUrG1qsoXsD/tyhWDAhsnXLMVKEYnOWDXpUfm9U3TK8uDjLZcW1ezhSe+bHN3N/mlbe4R9ac2gYP17tz8FvMHiuWqKl/S2iZ0yyO3xYNTHOwg8SJNmZjJF7JSoPw1t2UL9DU/8i11d1MCH2bbmplHZQx2dgmXAhOvgL9K5csWJI9cn6d7N4/rZgE9TjkAFpTy9zKJ50oWw93MV85Rn8l4W/b19vbSX7J/Y1HQJrDVLV7gEFTwekHwxI/8ZFHrKF4wCKHbfcGn8HDLCeDxnPIlLRyXv9UQTFBJcesjZnlLy4w9SttyNyGwt/lRjh2wRE1bp+g9UQqngq9YFhWJp3duKk6GAKU4bn+oeRWG2zuABbej2ha4K/lwgcyOJJVNPCehrZcGPcpbr+/x+Dj9GfmORUHbBB+afYimALp9Vzq9m6Khf1eL8/5BLZ8n+eI1eQTii1DqphSgQu908kVTe+cAMn2Zb3tM6WvO9lp4kh0n6O1eYQZZILAZRhePKfCoc0ffuTVfqXzxunJJG3yeUoAKIwKKSR3ngHpjae/QzJGdu9xMA97KE/Lv+Hh37mmGEvg4YkVBm0H8YJLZFl0B7uWtk79K5YvHlzMbaUHVu0yE5QrOF3IQ+ZXuT6A6S+leftyyu5Veytt3vmd/z2TGe3OP2F8tAruAdqEAGw7yGgbBJTiDO1gbSZuqjnwRU3WKHWwxs6WVL+JxGX/wKUh5aHrCmCN+M5PpXYmdOZPJZH7M9lpRkBLYLXuuGk1iWRJcHAuneVUoX7xWOYMZLn6eQoCK3yegky+IFOw00FOJKq1DuRrvzX6XyZx57Pv+zJm/Z8bjP7IoSAlsfihfWSE3DWNyRAyVzhGIiJuNcvkC6ja8yhew+yJ+nvxrqYDlgGDpmMtoMkBJGcGVTYrI9GNmPDO+/CiT+eE5oe/Mi8yjHLFFS8d0LytGAb4iCFgg2MlwiXWw2S+XL2Aqb8GTR+Lnyet7wMCD3W6HeaF0VA/oWVTyBiPF/kTuhxfEZeYymWf79+8nBGZ8j4kPzVADfKTUBXiF1OH0jE1o190dP0Coke/lgI0RVS8NOw7kUhoPJVp3A1t17r7AoCakFKSVacpXM3xPjS6bebF/PyPw6YpF32NqeysS8cIgeUzmQCpJHwuONAUTku81cHsDED3knyrKlx7V3QGonjziIHuZMLB2MAGdMRk746MOqw/JXwqqDPBZYnRnVp7vt/DfvmcvXvy4THmLrzx7qrpQ9bqrYcWrzARfJUZSRfJIPHkLSneRXJIsINBYglNdMVkyHH2BukRTLBZMDo2oEo7q9Moq4W91ZY3Rt7ayQX959v3z58/O/LCqHojySmBE9eZFvgB9pvp6KQTJa+vckBTYIc8ONrz06SUPkKuB+Orz1Q1qdtm1qakpQpzPtkNqlErr85X5ulxxqCrdfdnCB6c13YLd98FqUVeIx++DNIUqM5B7vsbs7iXhb2ot93TNJnDte+kbtYooowYUrEQ9le5WLl9UD047gLoP0yIGpbuVPeyjzuxkX67tn3r5E+XvpY9ZIcFq1qfnz3sRKHoi2tPuS+W1L9LX1rmB+g99tXb3xVfh0yK6zNzG2tRL6kDXsqvUjRIGN1efPzcZDI8hEO4jpIXTFKW74sleH5wG5o53e8SPkjwRDGaxME+NvuhTBm1mfGVtap3wth6ZsrG2ptEuBXghsA/OI7BQVuy+iM7Pa9pRLxZtgAUETsOB5IIYUA2fOoIyVMdfbH1qbXN97VVs89WahecGztOCuQuV6PxKS3e9pv3BaOMm1M+rlIACKtj5MJGgDUlfDIghdXlI/On66tTaum/99cZPKxtPV1c3VrzUkxiKGPdLWIvQvm2TB3B+HrrKAGY4PlGcK1hWgYAKayO0rmqAmbeY2NG/GXP1Zeyn+Kusb3PDdBT4/hu8Nj4tNynRgBXhTzzZ85c7m7+B021XkoUmCAD4btUPVTQUAoFgztoNithrn2/z9Sb5bV1//wBJDYNjqgS5aL8KjygOgdfVny/qMsBhafqiyZEMkE/BpGtK9EnPlCeFd5Xuw72JHdCmp58Sf7nyinqtFd2pEjTJezbQogm/LmndoGTELSq8f2sH6WywiFBI2bmmEEWUnKi+h0iQg/LUurQ4QoEh9wu+eRjEMrrbufpKf54SyQ7Qtd0mX1oci5Z6q/2i6hh/b5V/I/IbQLQulRo50OcfOHA0kNrZvjX3EP/5tSrXYIhEMtUfCIwdSAcCqdSkydSpYWuwubqy+ab7UEPZiP0c9/38pjtRQ9nYJMa3vi2jSQ0E8f8hoWqj5kC3K6j5+SI1B7pNwczP53tdc6DbE7/8wn5s/PKG+1FDWYj8w1qoRf75hjtSQ1n4V8Hufq050O2IfxT2SdprDnQbomh+NQe6LfG/pXTpr56zMTW8afzr19LvyZoD3Xb4J1cVEPn1jXWjyvg/eu3fGrpewKkAAAAASUVORK5CYII=;imageBorder=#000000;strokeWidth=2;" parent="1" vertex="1">
                    <mxGeometry x="280" y="475" width="158.23" height="40" as="geometry"/>
                </mxCell>
                <mxCell id="4" value="Micrometer" style="shape=image;verticalLabelPosition=bottom;labelBackgroundColor=none;verticalAlign=top;aspect=fixed;imageAspect=0;image=data:image/svg+xml,PHN2ZyB4bWxuczpkYz0iaHR0cDovL3B1cmwub3JnL2RjL2VsZW1lbnRzLzEuMS8iIHhtbG5zOmNjPSJodHRwOi8vY3JlYXRpdmVjb21tb25zLm9yZy9ucyMiIHhtbG5zOnJkZj0iaHR0cDovL3d3dy53My5vcmcvMTk5OS8wMi8yMi1yZGYtc3ludGF4LW5zIyIgeG1sbnM6c3ZnPSJodHRwOi8vd3d3LnczLm9yZy8yMDAwL3N2ZyIgeG1sbnM9Imh0dHA6Ly93d3cudzMub3JnLzIwMDAvc3ZnIiB4bWxuczpzb2RpcG9kaT0iaHR0cDovL3NvZGlwb2RpLnNvdXJjZWZvcmdlLm5ldC9EVEQvc29kaXBvZGktMC5kdGQiIHhtbG5zOmlua3NjYXBlPSJodHRwOi8vd3d3Lmlua3NjYXBlLm9yZy9uYW1lc3BhY2VzL2lua3NjYXBlIiBpZD0ic3ZnMzM1NSIgdmVyc2lvbj0iMS4xIiBpbmtzY2FwZTp2ZXJzaW9uPSIwLjkxIHIxMzcyNSIgeG1sOnNwYWNlPSJwcmVzZXJ2ZSIgd2lkdGg9IjE4OS4xMDU3NCIgaGVpZ2h0PSIxODkuMTA3MzgiIHZpZXdCb3g9IjAgMCAxODkuMTA1NzQgMTg5LjEwNzM4IiBzb2RpcG9kaTpkb2NuYW1lPSJsb2dvLW5vLXRpdGxlLnN2ZyI+PGRlZnMgaWQ9ImRlZnMzMzU5Ij48Y2xpcFBhdGggY2xpcFBhdGhVbml0cz0idXNlclNwYWNlT25Vc2UiIGlkPSJjbGlwUGF0aDMzNjkiPjxwYXRoIGQ9Ik0gMCw3NjggMTM2Niw3NjggMTM2NiwwIDAsMCAwLDc2OCBaIiBpZD0icGF0aDMzNzEiIGlua3NjYXBlOmNvbm5lY3Rvci1jdXJ2YXR1cmU9IjAiLz48L2NsaXBQYXRoPjwvZGVmcz48c29kaXBvZGk6bmFtZWR2aWV3IHBhZ2Vjb2xvcj0iIzAwMDAwMCIgYm9yZGVyY29sb3I9IiM2NjY2NjYiIGJvcmRlcm9wYWNpdHk9IjEiIG9iamVjdHRvbGVyYW5jZT0iMTAiIGdyaWR0b2xlcmFuY2U9IjEwIiBndWlkZXRvbGVyYW5jZT0iMTAiIGlua3NjYXBlOnBhZ2VvcGFjaXR5PSIwIiBpbmtzY2FwZTpwYWdlc2hhZG93PSIyIiBpbmtzY2FwZTp3aW5kb3ctd2lkdGg9IjE2ODAiIGlua3NjYXBlOndpbmRvdy1oZWlnaHQ9IjEwMDEiIGlkPSJuYW1lZHZpZXczMzU3IiBzaG93Z3JpZD0iZmFsc2UiIGlua3NjYXBlOnpvb209IjAuNzA3MTA2NzgiIGlua3NjYXBlOmN4PSIyNjMuMzE5MzQiIGlua3NjYXBlOmN5PSIxNDEuNTgyOSIgaW5rc2NhcGU6d2luZG93LXg9IjAiIGlua3NjYXBlOndpbmRvdy15PSIxIiBpbmtzY2FwZTp3aW5kb3ctbWF4aW1pemVkPSIxIiBpbmtzY2FwZTpjdXJyZW50LWxheWVyPSJnMzM2NSIgZml0LW1hcmdpbi10b3A9IjAiIGZpdC1tYXJnaW4tbGVmdD0iMCIgZml0LW1hcmdpbi1yaWdodD0iMCIgZml0LW1hcmdpbi1ib3R0b209IjAiLz48ZyBpZD0iZzMzNjMiIGlua3NjYXBlOmdyb3VwbW9kZT0ibGF5ZXIiIGlua3NjYXBlOmxhYmVsPSJNaWNyb21ldGVyIGxvZ28iIHRyYW5zZm9ybT0ibWF0cml4KDEuMjUsMCwwLC0xLjI1LC00NjguMDMzNzUsNTczLjkyODc1KSI+PGcgaWQ9ImczMzY1Ij48ZyBpZD0iZzMzNjciIGNsaXAtcGF0aD0idXJsKCNjbGlwUGF0aDMzNjkpIiBpbmtzY2FwZTpleHBvcnQteGRwaT0iNjkuODg5OTk5IiBpbmtzY2FwZTpleHBvcnQteWRwaT0iNjkuODg5OTk5Ij48ZyBpZD0iZzMzNzMiIHRyYW5zZm9ybT0idHJhbnNsYXRlKDM5NS44MTMsMzUwLjU4NSkiIGlua3NjYXBlOmV4cG9ydC14ZHBpPSI2OS44ODk5OTkiIGlua3NjYXBlOmV4cG9ydC15ZHBpPSI2OS44ODk5OTkiPjxwYXRoIGQ9Im0gMCwwIDYuMTUzLDEzLjk4NCAxMy42MDEsNC4xNjMgMTAuMTE1LDQ3LjU4OSAyNC40ODUsLTI3LjcwNiAyMy45MjEsMjcuMjQ5IDExLjE4MywtNDAuMSA3LjM1MSwxLjcxOSAxNC45ODMsMzAuMTA5IDEwLjgzMSw4LjMwOCBjIC0xMi4xMzcsMjUuNTY1IC0zOC4xODYsNDMuMjQzIC02OC4zNjcsNDMuMjQzIC00MS43NzYsMCAtNzUuNjQyLC0zMy44NjcgLTc1LjY0MiwtNzUuNjQzIDAsLTEyLjQxNCAyLjk5LC0yNC4xMyA4LjI5MSwtMzQuNDY2IEwgMCwwIFoiIHN0eWxlPSJmaWxsOiMxYmE4OWM7ZmlsbC1vcGFjaXR5OjE7ZmlsbC1ydWxlOm5vbnplcm87c3Ryb2tlOm5vbmUiIGlkPSJwYXRoMzM3NSIgaW5rc2NhcGU6Y29ubmVjdG9yLWN1cnZhdHVyZT0iMCIvPjwvZz48ZyBpZD0iZzMzNzciIHRyYW5zZm9ybT0idHJhbnNsYXRlKDUxNC43MDI2LDQwMS43NDUxKSIgaW5rc2NhcGU6ZXhwb3J0LXhkcGk9IjY5Ljg4OTk5OSIgaW5rc2NhcGU6ZXhwb3J0LXlkcGk9IjY5Ljg4OTk5OSI+PHBhdGggZD0ibSAwLDAgLTE1LjkzOCwtMzIuMDI0IC0xOS44MTUsLTQuNjM4IC05LjA0NiwzMi40MzUgLTE5LjcxNSwtMjIuNDU3IC0xOS40NDIsMjIgLTcuNTEzLC0zNS4zNSAtMTQuNzIsLTQuNTA3IC02LjU2MiwtMTQuOTE0IC0xNC4xOTIsLTEuNjgxIGMgMTMuNjQ0LC0xOS43ODMgMzYuNDYxLC0zMi43NTIgNjIuMzEsLTMyLjc1MiA0MS43NzYsMCA3NS42NDIsMzMuODY3IDc1LjY0Miw3NS42NDMgMCw4LjMwMyAtMS4zNDIsMTYuMjkxIC0zLjgxNCwyMy43NjUgTCAwLDAgWiIgc3R5bGU9ImZpbGw6IzExN2E3MTtmaWxsLW9wYWNpdHk6MTtmaWxsLXJ1bGU6bm9uemVybztzdHJva2U6bm9uZSIgaWQ9InBhdGgzMzc5IiBpbmtzY2FwZTpjb25uZWN0b3ItY3VydmF0dXJlPSIwIi8+PC9nPjxnIGlkPSJnMzM4MSIgdHJhbnNmb3JtPSJ0cmFuc2xhdGUoNjA3LjE0OTQsMzYzLjYxODIpIiBpbmtzY2FwZTpleHBvcnQteGRwaT0iNjkuODg5OTk5IiBpbmtzY2FwZTpleHBvcnQteWRwaT0iNjkuODg5OTk5Ii8+PGcgaWQ9ImczMzg3IiB0cmFuc2Zvcm09InRyYW5zbGF0ZSg2NzQuODM2NCwzNjYuNTk5NikiIGlua3NjYXBlOmV4cG9ydC14ZHBpPSI2OS44ODk5OTkiIGlua3NjYXBlOmV4cG9ydC15ZHBpPSI2OS44ODk5OTkiLz48ZyBpZD0iZzMzOTEiIHRyYW5zZm9ybT0idHJhbnNsYXRlKDcwNS4wODIsMzkwLjc5NjQpIiBpbmtzY2FwZTpleHBvcnQteGRwaT0iNjkuODg5OTk5IiBpbmtzY2FwZTpleHBvcnQteWRwaT0iNjkuODg5OTk5Ii8+PGcgaWQ9ImczMzk1IiB0cmFuc2Zvcm09InRyYW5zbGF0ZSg3NTcuMTE2MiwzODMuNTE0MikiIGlua3NjYXBlOmV4cG9ydC14ZHBpPSI2OS44ODk5OTkiIGlua3NjYXBlOmV4cG9ydC15ZHBpPSI2OS44ODk5OTkiLz48ZyBpZD0iZzMzOTkiIHRyYW5zZm9ybT0idHJhbnNsYXRlKDgyMi45OTcxLDM2My42MTgyKSIgaW5rc2NhcGU6ZXhwb3J0LXhkcGk9IjY5Ljg4OTk5OSIgaW5rc2NhcGU6ZXhwb3J0LXlkcGk9IjY5Ljg4OTk5OSIvPjxnIGlkPSJnMzQwMyIgdHJhbnNmb3JtPSJ0cmFuc2xhdGUoODYyLjk5MDIsMzYzLjYxODIpIiBpbmtzY2FwZTpleHBvcnQteGRwaT0iNjkuODg5OTk5IiBpbmtzY2FwZTpleHBvcnQteWRwaT0iNjkuODg5OTk5Ii8+PGcgaWQ9ImczNDA3IiB0cmFuc2Zvcm09InRyYW5zbGF0ZSg5MDkuMTE4MiwzOTMuNjkxOSkiIGlua3NjYXBlOmV4cG9ydC14ZHBpPSI2OS44ODk5OTkiIGlua3NjYXBlOmV4cG9ydC15ZHBpPSI2OS44ODk5OTkiLz48ZyBpZD0iZzM0MTEiIHRyYW5zZm9ybT0idHJhbnNsYXRlKDk0Ni4wNzIzLDM2My42MTgyKSIgaW5rc2NhcGU6ZXhwb3J0LXhkcGk9IjY5Ljg4OTk5OSIgaW5rc2NhcGU6ZXhwb3J0LXlkcGk9IjY5Ljg4OTk5OSIvPjxnIGlkPSJnMzQxNSIgdHJhbnNmb3JtPSJ0cmFuc2xhdGUoOTc2LjI5LDM5MC43OTY0KSIgaW5rc2NhcGU6ZXhwb3J0LXhkcGk9IjY5Ljg4OTk5OSIgaW5rc2NhcGU6ZXhwb3J0LXlkcGk9IjY5Ljg4OTk5OSIvPjwvZz48dGV4dCB4bWw6c3BhY2U9InByZXNlcnZlIiBzdHlsZT0iZm9udC1zdHlsZTpub3JtYWw7Zm9udC12YXJpYW50Om5vcm1hbDtmb250LXdlaWdodDpub3JtYWw7Zm9udC1zdHJldGNoOm5vcm1hbDtmb250LXNpemU6MzJweDtsaW5lLWhlaWdodDoxMjUlO2ZvbnQtZmFtaWx5OidHaWxsIFNhbnMnOy1pbmtzY2FwZS1mb250LXNwZWNpZmljYXRpb246J0dpbGwgU2Fucyc7bGV0dGVyLXNwYWNpbmc6MHB4O3dvcmQtc3BhY2luZzowcHg7ZmlsbDojMDAwMDAwO2ZpbGwtb3BhY2l0eToxO3N0cm9rZTpub25lO3N0cm9rZS13aWR0aDoxcHg7c3Ryb2tlLWxpbmVjYXA6YnV0dDtzdHJva2UtbGluZWpvaW46bWl0ZXI7c3Ryb2tlLW9wYWNpdHk6MSIgeD0iMTAzMS44MTAzIiB5PSItMzg0LjY2NjA4IiBpZD0idGV4dDQyMTkiIHNvZGlwb2RpOmxpbmVzcGFjaW5nPSIxMjUlIiB0cmFuc2Zvcm09InNjYWxlKDEsLTEpIj48dHNwYW4gc29kaXBvZGk6cm9sZT0ibGluZSIgaWQ9InRzcGFuNDIyMSIgeD0iMTAzMS44MTAzIiB5PSItMzg0LjY2NjA4Ii8+PC90ZXh0Pgo8Zmxvd3Jvb3QgeG1sOnNwYWNlPSJwcmVzZXJ2ZSIgaWQ9ImZsb3dSb290NDIyMyIgc3R5bGU9ImZvbnQtc3R5bGU6bm9ybWFsO2ZvbnQtdmFyaWFudDpub3JtYWw7Zm9udC13ZWlnaHQ6bm9ybWFsO2ZvbnQtc3RyZXRjaDpub3JtYWw7Zm9udC1zaXplOjQwcHg7bGluZS1oZWlnaHQ6MTI1JTtmb250LWZhbWlseTonR2lsbCBTYW5zJzstaW5rc2NhcGUtZm9udC1zcGVjaWZpY2F0aW9uOidHaWxsIFNhbnMnO2xldHRlci1zcGFjaW5nOjBweDt3b3JkLXNwYWNpbmc6MHB4O2ZpbGw6IzAwMDAwMDtmaWxsLW9wYWNpdHk6MTtzdHJva2U6bm9uZTtzdHJva2Utd2lkdGg6MXB4O3N0cm9rZS1saW5lY2FwOmJ1dHQ7c3Ryb2tlLWxpbmVqb2luOm1pdGVyO3N0cm9rZS1vcGFjaXR5OjEiIHRyYW5zZm9ybT0ibWF0cml4KDAuOCwwLDAsLTAuOCwwLDc2OCkiPjxmbG93cmVnaW9uIGlkPSJmbG93UmVnaW9uNDIyNSI+PHJlY3QgaWQ9InJlY3Q0MjI3IiB3aWR0aD0iNTIzLjI1OTAzIiBoZWlnaHQ9IjE0OS45MDY2MyIgeD0iNzA0LjI3ODM4IiB5PSI0MTkuNzcwNDIiIHN0eWxlPSJmb250LXN0eWxlOm5vcm1hbDtmb250LXZhcmlhbnQ6bm9ybWFsO2ZvbnQtd2VpZ2h0Om5vcm1hbDtmb250LXN0cmV0Y2g6bm9ybWFsO2ZvbnQtZmFtaWx5OidHaWxsIFNhbnMnOy1pbmtzY2FwZS1mb250LXNwZWNpZmljYXRpb246J0dpbGwgU2FucyciLz48L2Zsb3dyZWdpb24+PGZsb3dwYXJhIGlkPSJmbG93UGFyYTQyMjkiLz48L2Zsb3dyb290Pjx0ZXh0IHhtbDpzcGFjZT0icHJlc2VydmUiIHN0eWxlPSJmb250LXN0eWxlOm5vcm1hbDtmb250LXZhcmlhbnQ6bm9ybWFsO2ZvbnQtd2VpZ2h0Om5vcm1hbDtmb250LXN0cmV0Y2g6bm9ybWFsO2ZvbnQtc2l6ZTozMnB4O2xpbmUtaGVpZ2h0OjEyNSU7Zm9udC1mYW1pbHk6J0dpbGwgU2Fucyc7LWlua3NjYXBlLWZvbnQtc3BlY2lmaWNhdGlvbjonR2lsbCBTYW5zJztsZXR0ZXItc3BhY2luZzowcHg7d29yZC1zcGFjaW5nOjBweDtmaWxsOiMwMDAwMDA7ZmlsbC1vcGFjaXR5OjE7c3Ryb2tlOm5vbmU7c3Ryb2tlLXdpZHRoOjFweDtzdHJva2UtbGluZWNhcDpidXR0O3N0cm9rZS1saW5lam9pbjptaXRlcjtzdHJva2Utb3BhY2l0eToxIiB4PSI2MTcuNzI4NDUiIHk9Ii0zNDUuMDY4MTIiIGlkPSJ0ZXh0NDIzMSIgc29kaXBvZGk6bGluZXNwYWNpbmc9IjEyNSUiIHRyYW5zZm9ybT0ic2NhbGUoMSwtMSkiPjx0c3BhbiBzb2RpcG9kaTpyb2xlPSJsaW5lIiBpZD0idHNwYW40MjMzIiB4PSI2MTcuNzI4NDUiIHk9Ii0zNDUuMDY4MTIiLz48L3RleHQ+CjwvZz48L2c+PC9zdmc+;fontColor=#FFFFFF;" parent="1" vertex="1">
                    <mxGeometry x="99.99999999999997" y="465.5" width="59" height="59" as="geometry"/>
                </mxCell>
                <mxCell id="5" value="Prometheus Service" style="shape=image;verticalLabelPosition=bottom;labelBackgroundColor=none;verticalAlign=top;aspect=fixed;imageAspect=0;image=data:image/png,iVBORw0KGgoAAAANSUhEUgAAAOEAAADgCAMAAADCMfHtAAAAk1BMVEXmUiz////mTiblRhX//fzqdl3lShvlSh/wno/mUCnkPwDlTSPkPQDlSBrlRRTrfGXkQgv2ycHpak786+j+9vT98e/64Nv3zsb0vLLshG/tjnvqclj419HvmYjxqp3zt6zshnL53Nf2y8PoYEDukH7vmornXTz0urDyrJ/nVzLpa0/1wrjqeGDoXz7oZUbwpJXjKQAjBBblAAAP6klEQVR4nN1d10LjPNOWCzGWSxRSSCNlyS6YQPLf/9X97nGRbI1GDnm/52APdhfjx5Kmz4gY/+sgd/gds+lxstzvnt9OCd7+Xnf78+txOrvDrzYGZjjf7p/H/xzKWGgFTgLPS/4cBVbIGPMuq+tyOzTRoRhOz88bRsPA8Vwigut6TsCoM77+mQ/0GsYwDBf78Yhajimk1iDqOaFP1svpAK9i6Gc4X65GLPAkyVVpBpScJgNsWa0MF7t3qsCuZOmEdPOhe8PqYzjdRXQkPnSSMAP/60PrSmpiaC9fNNArSLLxq57XSqCF4eLELFm5IgWPeVddu1UDw8kLVT97IriOvzri383AM7T3bqh1+W7w6GXy6wztnRVoOn08mCw6/ypD+8oC4CsHDuwH3BDNEcFwPwLyc9nX8hNIMf6hH5xgVWY4IRZwf3rm1jDe4ZvaZZvF/RkuXhj0VUcb2zBeGZhgDNNfqxsBSgztNx8sP53v5CcPinrFYft7Mpx40MMUL8Ml/dGRGsEY4YviVoUznI2pwlkK0m02pcoM4616vQ/DiaWy0Vimu7ehOkNCgn8qywhkaB8UFjAWo+P886AYxsv4OTTDows/gQn83Iz+g2MYn8YNWKiCGO58NRPNOeUP2Copiyq8EKr/AQztser70cITwkiaHC5U4MgznCru0Pi7r8qHAO08LsInexCGEyURk4LdNtaTDk/LiSBhOVmGO1/5hVzv9phPdZVfgcm22hmuESKilDMxFmhRk8L1PzQzfMKcn/BP5UkdIXAQqLS8kWFov6vKmBR+VYU9ix8F487W+hjOIlSgyY2qD1sI9YXzBaNorUQvDGU4N3HyzzvUHvdPwMM6LYFSKHjSw3DuIQW8Uz8xn/wj7azg7v9oo4MhdgXjT72sP5C7TWP3cQ7XR47MKvYwnLtoFW01gp5j3qlm89gtgz979I1laEd4G6RpKvNCNezcKWXFCPrFTTfDi4ZwfcsZcFvnzUwOFHdt+59+4r23NMMNSg8W79C0sNqWG03sTIU4YwLWp/q7GB6glkzEi/GzY+OxLVnjpcq7vbRy8JftN5dkeIXakPGbfgStg8tawZXmfvRTV0H5QPjdZriY4RkuvVlsAF2aO5u1XJ2GrMndR+UT4YadzpSQ4ULBXUqdmqZ08tv+qlnbkPTI+UsIzKj1GyQY2iq/MEhCYbOG+2C1H36typo8VmxE6l6HM1ZguFE5FpknuK1JEvdf++HT6v4I8nj9BqF62Q7M8KoU9jOzb3moHimTZ1m9VNiw3LlaY3Rvh7ThM9yqxSzMzBSeVRfR4ank5c1CMwvDa4cJcLiOMI7KZWg7amfC/Mp+vmqAjXhh6so3sIocLy4e7gktVC5DNQOqXMOaTq/FMEqsyt9QRgCQsVRh+o3HcKkaLirSE9U0YVvhJyjD++ZL+XeKG6cAFWhFDsO5cjzMecsfUYneM374tmA4uklB1expjkLrSDBUUhTZ65Znrgwrue/831vQqVitSwUHsYqQn5hqMzyrhzRvZ66UNZ7Auym2aXj7KwUnvw6fu09bDGfQEosKbkeh3KaByPLP5EpNW34h3W2TG7dpMTyo+4Suc3tMwZAvaIxCmo6qxsgem7dhvOqiJsMjYqt4FfOwUAdMQDD2s5J/rgUAZtjcmzviiLUmw3fETgkqKilfD09oE2cZDFozRVbYoInzt5fhEmNYVHfkkbVIN5D8h3o8XEOKmCNs6gxVzbUUrlt9UvayIjVsZNa31wiViQLi0uDsmTrDK+asl/o+xSV5WbfDN018iVHD6zljKxkIbTkZNYYz1C5htbBh6gw5z2KGScgtbJbIAhNQbVSsQB7DN1T0sC4205hhK85WQRLjbsVwUHIge4tmeLbKEGdUNKyXhEDXJk1lUTuGgz6JLTOxyhC5hPUTkGiD5jGrIXaxarIpwyu6HqW5iBWGOIXrmi0CZSkUF3ZYRD1qwIRrUjR9jArDK2oJm0LFtlq6oAHT5SnoKdb+bm6mG0Mb57zQpgHqunkgVISLy7UH1thkSSP2dWOIs3vbQcN3pydFO/aaqcUU/BQqBH7tY98Y4lRRO+C08XuqQU8eX5koJRKrqEv1kqFajXmJtlAZ9yUvryPKlURoF6Ne31Iy/EbJMI7zOe6rBN0HVEAdu4i1810wRMbyrLbv2VtdNwnb6jAFzngkDUujYIj8boKIWie2TBAdQ5oepK4wCoY4OdOoCpLD1BfFqdGFtl6lJIwU3xP1RH5guwczX1iahhMKpLancoYnXPyAkyOUgC/0rfAV7zdNmzPELaEnWydYRyDuLcB2NVZ8/YzhK+6bgevnM3yJgzh/sbLm5pdlDFHZyY6QYTcO4jqRI1Zh3NRXxhBXfa0kSWNcO9p8kYmoil+TMkRKUo66l8K5Y3Mjd1UlIZIyRKp7qtj+uOgo9TkjE1E3Vz9l+IPaEu3wliRmR/G/oX2o0iNPGCLTWo5aX2CMLlNPtcytgPtTYYjcEZD2DnmgcxiFP5cwRBo0bJA5SKjikwSF/EsY4qxuV+Qh4IBsxrwlGQj6UNfTFdqA7h8qnESCNnMD+RYkCLTFMgje+R1E0GCdAVJaywQdZeaHk/BAZzDy8B/BGqVEEE5CA92MmZumBBsy4NWPagFaIeaihmB9Q1OibUUJaNs7V9RE1GolC1XXqRdoJzivnCDYbzWQOtQQ3M+tGlKrSFZhyMmQaQE68p27BATrTXcVI+AYotu+swNEZsiM5AOvYea4kinSdhCVV6KBP4dZ4p3gRsa0y5q0AenTJaCJi02wARF+UacGqJbTV5CW65A99kCPBmJ4wc8mSHPMBH2gOZ1bWqBhvkSaMCLo7S6sAsYBX7CQq3xywJrwqvHgHuBrTfNsNxljGQ5ktqGLvklu1BDgNIo2BnKf0M4Tye0tghdZwzj52NRMyjDZXuQf+jnClgoMtIzqSTO3JEI/h1dhiMZOxyiA1PTWwFA599QFdBwqQWpRanhOV8uBKsSDeiDQxrCz2FkN6JqhFBlDDbt0gKCwnpFg2s6hfv9Ch7onBUPFkSJ19FQDg4Fuu8iQ9pEDbBpPfCmH5kX8EPusyXUf0nZmZtNIB8+9t/PbhbGAO1Ou1ceBAt+ecb1RSL3xbiv9ypldupL972mzvX3cr//RsLWYWsVpu/vK9YKQktXna2ogSkcl0rIygH9Y9qHNXq9PzcUMlMsVWqj3I8TkmB8dcnIJ5POdqT1J5ENa9ZqLxfIUVRezr25dHmWIOiFHo/W+cWGSvNeR9gIQ+UH37R6eeDE3Vr6Y2pyoz3SJTCek76f9sW0QApLDqZ4mS3nVwxcni4/1jx/TDNRKMFuP803HYtb39VVg7QJ0ZRZrAyTXuINYUsy2sQD6P4VR1O0n+f7X27lrxwMm9aQuAYE4YvyW/gL2VkPUbdt3nCF9IUHyAwQS01KsBdYKQNVB1opIDEhUf6iqBHkcIQsyzhhCDFPn1xcRUr+QJf4ILKjVfRKHB2QJ81omAstEiocV3QeghHXmthJg7SXVamJDMQF5xpnUIMC43QARCwBAfmM+aoUU8x1kodHEBgM28iE3UAg4Ufd7wgZYvZV7CjHDEyyuZQomPw0PYF1M3mVM4BOorF/ap3tgxUHuzxKFFIE+VxACcIVh3lCX1HlDGf6OPP0BJjqLIpGEIThV5wxVYdKBEzSEWuQaEobw+Csbpra7A2dwIqOoL0gYKuTq7n0U4Zma8maUtO8JPlHXJQPVmPAxg79hWfeaMlQoMfWGKoXi4h3+gmWJSMpQpT/FGqomkYMnhVxbmbZNGSoNMaBDpO+5AM+GJ7dxuEWXrFL/e/B0H7woXZrwWWcICJpWYN4HSpm2m3+QMcQWCj8cKhO/8okD6DEND4bKMIOcIbqx+MFQGQiUMwQ6+o+Oav6hmN6C78F5JITnNkMd5ZyPg+qslXJOFK4n/7FQK3ktGcJdKHd0J4AZ1oJlJUMb6p8MUpLIBdRqrte+3CbSQbvh7scQKiLqueobQ+hIxodl2AgjVWZfAsM1D8vQqodYKgyBkYJHZVidDN9gCOyeflSGzflaVYag9OPDMmxOVqvNggbNHnhQhq0RaTWGoHu6HpNh9XplDkOQOH1MhmErVl1nCMl+PCRDTkqlcTcCoEb+IRlySu8aDG1AldsDMuRVYzdv8PiQpviIDHkZ+NY9MxfpqujHYzjiTT9oMZTWGI/HkDOm3+Dd9/Qm6XE+HkN+NRPnzi7JaXcPx1CQmeYwlLz8MGZo3wdyws8N+GXTvLvzTnL71LTuBKm3IVQwDZV7/yHi0tNfgyOadcRlqHJT7i+DL0eFDPOeh/8SxKUTgrtkn/5jQX4m7oQQMFS68Pj30HXlsejG4//UUXTdjtoX4b3cH2rd1J6DglqituN2tw6GxkklaeodnjG4Kk2p9DvmgncxNDYKNRAhsqtbZfwV66537WBoR/APih1WozAPKOgZa9jB0JjD54t0XHcgBfhIz747lzoZGgsGpYid3gZuU/d++koIOxnC710t54SrATwcyiS9U0e6GRqvUIq47rYJUH6bXv+v62FoTIAUceN4gFdzuyOJ3o8+hlCKqOkKwEy7a8k0t/QyhFLEtNTAqiVMR+pX9TOMzyJEwGE6aUGet0nkjrwEQ2MLothpJHZCPhqdfMlIcnaTDENjMQIoYuWTaEOuQHJeZEvppRga8wgg5JiiOF0BbNJQPpQpx9CwvwBCQG2fngEpJgqYZCjJ0DDWgAxQpNCMAagEcX3IcDFphsZeXt54X/2Pa2A6kn66aR0hT5ZnaGxH0oex1+BvYu5Jy7LgAjMMAQyN2Ze02Sgv6lIAhDWFei8QhoZxld6pHgH0fp2p9GNbt7H3AsbQ2JqyIt2l0uLgJC1kwi+46wJkaNgr6e/NNlJa45XIfjTTV4kgQBkaxp+R/Bv97bWsFt/SXyy8KOlZOEPDPkifRoc9d77VcUVl5bNHFUNACgzj0xjJC1X6LZIN8/2FyfJz2ZNq8ECJoWF8Mmkj0gzpeN8UrPb288sP5HUgAYtQLENjfvDl/Q0vYOzltFtOttvt6+TjeninDOCuOGynzE+dYSwjNhRUrOk5QRgyFlqBwx29KPw8/ho1xVedYXwcL2zwljePrpCTRjAMY102MEfPH6Pb4nEM43XcSMt7MBz/oKHtH8swPo8HKu/5yMO1wmcts9PwDGO5ujOlFZskHPr+oWmmgQ6GMf6MAdqtD2bITkc972VoY5haKBQSkhPSs/zvs86RFNoYxph+XmiA2a6uF7LvpeYZ9joZxpgvx4yp1RvEho+3nugf0a+ZYYLtdUMFI6OFaxebdW3jVQ8GYGikI6MPEWOB01d45HqOxdjPaTncvJthGKaYbZd/nyLKWGKJemZZmOu6bmykjoKQUfYzvp4Xw466GZBhBnt6nHx8vq1Xm8tPFJEoit5fnlbr58/l6+Iu01D/H+ZYErBPZdp6AAAAAElFTkSuQmCC;fontColor=#FFFFFF;" parent="1" vertex="1">
                    <mxGeometry x="600" y="396" width="120.53" height="120" as="geometry"/>
                </mxCell>
                <mxCell id="6" value="" style="endArrow=classic;html=1;fontColor=#FFFFFF;startArrow=none;startFill=0;endFill=1;labelBackgroundColor=none;strokeColor=#FFFFFF;strokeWidth=2;" parent="1" edge="1">
                    <mxGeometry width="50" height="50" relative="1" as="geometry">
                        <mxPoint x="270" y="496" as="sourcePoint"/>
                        <mxPoint x="170" y="496" as="targetPoint"/>
                    </mxGeometry>
                </mxCell>
                <mxCell id="26" value="Depends On" style="edgeLabel;html=1;align=center;verticalAlign=middle;resizable=0;points=[];fontColor=#FFFFFF;labelBackgroundColor=none;" parent="6" vertex="1" connectable="0">
                    <mxGeometry x="0.22" y="2" relative="1" as="geometry">
                        <mxPoint x="11" y="-12" as="offset"/>
                    </mxGeometry>
                </mxCell>
                <mxCell id="7" value="&lt;font color=&quot;#ffffff&quot;&gt;Http Endpoint&lt;/font&gt;" style="sketch=0;outlineConnect=0;fontColor=#232F3E;gradientColor=none;strokeColor=#232F3E;fillColor=#ffffff;dashed=0;verticalLabelPosition=bottom;verticalAlign=top;align=center;html=1;fontSize=12;fontStyle=0;aspect=fixed;shape=mxgraph.aws4.resourceIcon;resIcon=mxgraph.aws4.http_protocol;labelBackgroundColor=none;" parent="1" vertex="1">
                    <mxGeometry x="381.18" y="525" width="52" height="52" as="geometry"/>
                </mxCell>
                <mxCell id="8" value="Service Code" style="aspect=fixed;html=1;points=[];align=center;image;fontSize=12;image=img/lib/azure2/general/Code.svg;labelBackgroundColor=none;fontColor=#FFFFFF;strokeWidth=2;" parent="1" vertex="1">
                    <mxGeometry x="284.83000000000004" y="525" width="64" height="52" as="geometry"/>
                </mxCell>
                <mxCell id="10" value="Grafana Service" style="shape=image;verticalLabelPosition=bottom;labelBackgroundColor=none;verticalAlign=top;aspect=fixed;imageAspect=0;image=data:image/jpeg,/9j/4AAQSkZJRgABAQAAAQABAAD/2wCEAAkGBw8SEhMQEBIQEBUWEhcWFRcVFRUVEBIVFRUWFhcVGBUYHSggGBolHRUTITEiJSkrLi4uFx8zODMsNygtLisBCgoKDg0OGxAQGy0mICYtLy8vLS0tLS0tMC8vLS0tLS8rLy0tLS0tLSstLS0tLS0tLS4tLS0tLS0tLS0tLS0tLf/AABEIAOEA4QMBIgACEQEDEQH/xAAbAAEAAQUBAAAAAAAAAAAAAAAABgIDBAUHAf/EAEIQAAIBAgIHBAcFBgQHAAAAAAABAgMRBAUGEiExQVFhcYGRoRMiMlKxwdEjM0JiggcUcpLh8CSDsvEVFjREY3Oi/8QAGwEBAAMBAQEBAAAAAAAAAAAAAAQFBgMBAgf/xAA0EQABAwICBwgCAgIDAQAAAAABAAIDBBEhMQUSQVGRofAiYXGBscHR4RMyQvEGJFJioiP/2gAMAwEAAhEDEQA/AO4gAIgACIAAiAAIgACIAAiApbttZAtKNK226OGdo7pVFvfNRfBdeJymmbE3WcpNLSyVD9Vnmdg62Kdwmnuae22x32rgXDjuV5tWw89enJ/mT2wl2r57zpWQ53TxULx9Wa9uD3x6rmupxp6tsuBwPWSkVujZKYawOs3fu8R132W4ABLVcgACIAAiAAIgACIAAiAAIgACIAAiAAIgACIAAiAGPiqypwnUe6MXJ9yuEAubBRHTnPHH/DUnZtXqNb0nuj38SDF3F4iVScqktrlJt95aM7PKZX6x8vBbekphTxCMZ7TvO1eGVl2OqUKkasHZp90lxi+jMY8OQJBuFIc0OFjkuyZZjoV6casN0l3p8U+wzDnGhmfU6GvTrScYNqUXZtKW57ty3Mm+GzbDVPu61OXTWV/Bl/T1DZGA3F9yxtZRPgkIAOrsNtnitgACQoSAwcVmmHp/eVqcOjkr+BhrSjBNpemjtdt0rfA+DKxuBIHmuraeVwu1hI7gVugeI9PtckAARAAEQABEAARADVaQZssLS9Lq671lFK9tr5vuPlzg0FxyC+42OkcGNzK2p43Y5djtL8ZU3TVJcoKz/md2aitjK03edSpLtlJ/MgO0iwfqCeSuI9ByEdtwHhj8DmuyfvEPej4oqjNPc0+zacTu+pcpYmpHbCc49kpL4M+BpL/rz+l1Ogt0n/n7XazFxmNpUo69ScYRXFv4czm2B0sxlP8AH6Vcqi1vNbTWZhj6teWvVm5Phyj0S3I+36Qbq9kY965x6EkL+24avdmeOXmpbmunK2xw0L/nn8ofXwItjs3xNb72rNrle0P5VsME9K6SeST9j5bFdwUcMH6Nx3nE8fiwXh6AclJQABEFgAi2OX59iqPsVZW92XrR8GZeaaVYqutVtUo22qnda3a737jRHp9iV4bqgmy4mniL9ctF99uud0vx/wBwwDmu111TRPG+mwtOT2yj6ku2Oz4WN2Q/9nMn6Gov/IvOKJgaKmcXRNJ3LFV0YjqXtGV/XFAAdlEQABEAARAAEQi/7QV/hv8ANj8JEoNBppS1sJUt+Fxl4Pb5XONSLxO8CpVC4CpjJ/5D491y49PD0zy2yAAIgACIASPIdEqtZKdW9KD2rZ9o10T3Lqz7jjdIbNF1ymmjhbrSGw6y3qOLktvxNvgtGcbVs1SlBc52gvPb5HRctybD4dfZU0n7z2zf6mbMsY9HbXnh8qkm05sib5n4GXFc+o6A1vx1oR/hUpebsZsNAaf4q1TujFfG5NASBRQjZzKgO0tVO/lbyHuCobLQGjwrVO+MbGFiNAqi+7rQfSUXHzTfwJ+D00UJ2cyvBpWrH8uQ+FyjG6L42lt9E6i5weuvBbfI07Vtj2PzO3mtzLJsPXX2tNN+8tk1+pbSNJo4fwPH5U+HThylb5j4OfFciBJ870Nq07zot1YLhb7SPcva7iMFdJG6M2cLK8hnjmbrRm46z3Kbfs+zCiozoN6tRy1lfdJWSsuqtuJycRpzcWpRbTTumtjTXE6hotnaxNO0rKpDZNc/zLtLOhqAR+M57FQaXoi1xnbkc+769FvgAWKo0AARAAEQABEMbHUFUpzpv8UHHxRkg8IuLFegkG4XEqtNxbi96bT7VsKbEm04yzUr+lS9Wpt7JL2l8+8jtjNyMMby07FuYZhLGJBtHXDJWrCxdsLHO663VuwsV2JdoRkak/3morxi/s09zkvxdi+J1ijMrwxq41FQ2CMyP2czuWZonosqajWxCvPfGD3Q5Nr3vgTIA0EUTYm6rVjaioknfrvP13BAAdFwQABEAARAAEQjWkmjFOunUp2hV8I1OkuvUkoPiSNsjdVwwXWGeSF+vGbHrNcUxGHnTk4TTUouzT3pmTk+YTw9WNWPB7V70XvR0LSjIY4mGtFJVIr1XzXuv5HNKlJxbjJNNOzT3poop4nwP9CtZS1cdXGbjuI62Fdkw2IjUhGpB3jJJp9GXyG/s/zC8ZYeT9n1ofwveu5/EmRdwSiVgeFlqqAwSujOzLw2IADqo6AAIgACIAAi1efZfCvRlCVlZa0Ze60t/YcrsdO0sxXo8NO2+VoL9W/yuc0sUmky38gAztj7LR6GDvwuJyvh79dyt2Fi5YWK5XCv5bgpVqsKUd8ntfJcX4HV8NQjThGEFaMUkl0RE9AcD95Xa/IvjL5EzLzR0WrHrnM+n3ms1pao15fxjJvr9ZcUABYKpQpbttZRWqRjFyk1FJXbe5JHP9IdIp1m4U24U+W5z6y6dCPUVLIBc57B1kpVJSPqHWbgBmd3ye5b/NtLaNNuNNemkuTtTT/i49xGsZpVjKm6aprlBJebuzS6osUslZM/bbuGH2tHDo+ni/jc7zj9cllSzXFPa61Z/wCZP6nsM2xUdqr1l+uVvBsxLCxH/I7eVL1G7hwC3eE0sxcN81UXKcV8VZ/EkOWaZUZ2jVi6L5+1T8d670QOwsd46yZm2/jj9qLNo+nkzbY7xh9cl2CjUjJKUWpJ7mndPvLpyzKc4rYeXqO8eMH7D+j6o6DlOa0q8NaDs17UX7UX1+pcU1YybDI7vjq/cs/WUElP2s27/nqy2RC9N8m/7mmulRLyl8mTQtVqSlFxkrppprmmdZ4RKwtPRXGmqHQSB48+8bVyzR/F+hxFOfDWtL+GWx/XuOro5PmuBdCrOm+D9V8474s6bllf0lKnPnCLfbbb5kDRriC+M7P6PsrPTDWuDJW7cPce6zAAWqpEAARAAEQAx8ViadOLnOSilxf97TwkAXK9AJNgoxp9X2UqfVyfwXzIbY3WkmZRxFVSgmoxjqq+xva3e3eaixmKuUSTOcDcLWUUZjga0jHb5qiwsV2LlKlrSjHnJLxdiNdSrgZro2juG9Hh6ceLipPtltNoUU4WSS4KxWa9jdRobuFli3vL3Fx2m6AGNjsQqdOdR/hi39D0kAXK+QCSAFEdNM0cpfu8Hsjtn1ly7iK2L9STk3KW1ttvtZk5Tl0q9RU47Fvk/djxZlZJXTyX2nIegWuhYymh1dgGJ9T13BWcuy2rXlq0o63N7ox7WSrBaGU0r1Zyk+UPVj4va/IkeBwdOjBU6asl4t82+LMouoNHRsH/ANMTyVJUaUlebR9kc+OxaH/lTBe5Lt1pfWxh4vQyi/u5zg/zWlH5MlQJDqSA5sHC3oora2oabh58zf1uuY5pkVehtnHWj78dse/iu81ljr7Sex7V5Mhmk2jqgnWoL1d8oL8PVdOhV1ejzGC+PEbtv36+Kt6PSYkIZJgdh2H49PBROxlZfjKlGaqU3ZreuElyfQsWFisDyDcFWrgHCxGC6jlePhXpqpDjvXGL4pmac80VzL0NVRk/UnsfJPhL5HQzTUdR+eO5zGfXespW034JdUZHLruUQ07wV1CsuD1Jdj2r5m20TnfC0uia8GzLzjB+mozpq12tl911tRbyHBSo0Y0521ldu27az4bCW1ReBgW87ro6dr6QRk4h3KxWyABNUBAAEQAx8XiI04SnLYoq/wDQ8JAFyvQCTYLGzXM4UIa0trfsx4yf06kBzHH1a8teo78kvZiuSRVmWNnXqOpPuXCK4IxbGYrK105sP13b+89Yc1pKKjbA25/bfu7h1iqbHliuwsQrqddU2MnKV9vR/wDbD/UixYvYGWrUhLlOL8JJn0w2cD3heOyK6iDw9NoVjUNFpdO2Ha96UV53+RvTQaZRvQT5TXwaItYbU7/AqTRgGoZfeFBLE50OwShR9I1tqO/6VsXzfeQix0vKIpUaSXuL4FPopgdKXbh6q30q8iENG0+izQAaFZ9AAEQpaKgEXONIcu9DWaXsy9aPY+Hca2xNtM8OnSjU4xl5S2fGxC7GVrYhFMWjLMef3damimMsIcc8j5fVlTY6PkOM9LQhN77Wl2x2M51Yl2hFb1akOUlJd6t8jvouXVn1d49MVw0pHrQ624+uBUpABo1nUAARAAEQh+l+PbkqMXsjtl1b3LuXxJgQTSHLqlOpKbvKM22pdXwfUrNKueILNyJx8Pvap+jWsM13ZgYeK01hYrsLGZutDdUWFiuwsLpdUWPbFVhYXS66LllfXpU584q/bufmZhGdD8V6sqL3p60ex7/MkxsaSb80LX92PiMCstUxfilc3qxQ1+d4X0lCcFvtddsdqNgDs9ge0tORwXJri1wcNi5ZYnejGKU6EVxh6r7t3kR/SPLHSm5xXqTd/wCF8UYuT5jKhPWW2L2SXNc+1GZppDR1JbJ4Hw2HrvWgqGiqguzPMfHsuhAx8LiYVIqcGpJ+XRrgzINOCCLhZ0gg2KAA9RAAEWo0n/6af6f9SIFYm2l1S1FR96a8tv0IZYzOlnf7FtwHufdaDRgtBfeT7KmxItCX9pUX5F5P+pH7G+0QqxjUkpNJyilFPi77iPQH/ZZ4+xXatxp3+CmYANcsygACIAAiFmvRjOLhNKSe9MvA8IuLFMsQoXm2QypXnTvOH/1Ht5rqaWx041OPyOjV229HLnHc+1bijq9EXOtBwPsfY4d4VtT6SsLS8flQewsbrE6PVoeylUX5d/gzXVsLOPtQnHti0vEpJIJYv3aR5Yccuas2TMf+pBWNYWLlhY5XXS6rwOJlSnGpHen4rijoGGrxnFTi7po57Y2uQZp6GWpP2JP+V8+wtNGVogfqPPZPI/Gwqvrqb8rdZuY5j53KaAojJNXW1PdyZWalUSs16EZxcZpST3oiWZ6O1Kd5Ur1Icvxx7uPcTMEWqo46gdvPYRn/AF3e+KkU9S+E9nLcucYfEVKUrwlKD42+DX1NtR0mrr2own3NPyJRXwlKftwhLtSv4mN/wTDb/RLxf1KxmjqqHCKXDzHKxCnOrqeTGRmPl64FR+rpBiKnqwiot+4m59zf0N5kNCvCm/Tybbd0m7yiurM+jhqcPYhGPYki+Tqekka78kshceA4f0ok1SxzdSNgA5oAYGa45Uabl+J7Irm/oTJHtY0vdkFGY0vcGtzKjmlWK16qgt0Fb9T3/I0di7Nttt7W3dnljFTzGaR0h2laeFgjYGDYrdipcyqwscl0upno/mXpoWl7cdj6rgzbkEyLE+jrQ5N6r7H/AFsTs1ujKkzw9rMYH5623WerYBFJ2cjj8oACwUNAAEQABEAARDHxmHjUhKEtzXg+DMgHjgHCxyK9BINwue4rDSpzcJb0/HqW7EwzvLfSx1o+3Hd1XIiTi1saszF11IaWTV2HI9bRtWhpqgTNvt2q3YWK7CxCupN1scoziVH1ZXlDlxj2fQlmHxMJx1oSUl8O3kQKxdw9edN60JOL6ce1cS1otKvgGo8azeY8N/geKgVNE2XtNwPr13KfgjmE0j4VYW6x+cWbahmdCfszT6PY/A0MFfTzfo4X3HA8D7XCqpKaWP8AYeeYWaCiMk9zTKmTQCVwXoMatjKcfanFd6v4GoxekS3Uo3/NLYu5b2RZ6yCD93Dw28M12jgkk/UeexbbHY2FKOtN9i958kQvMMZOrPXl3LhFFOIrTm9abcn1/vYW7GXrtJOqeyBZu7f3n4yGeauaWlbDicTv+FRYWK7BRe4rtZTLqmwsSfB6P09WLqa2tvaTsl03Gww+V0IbYwTfN+s/Mt49DVDrF1hxvwtn5+agP0jE3K5UZyvJ6tVqW2Eb3u977ETRHoL+jomUrSGm5OZ3/HWKq6iodMbnYgAJijoAAiAAIgACIAAiEHzKpr1Zy6vy2fImlV2TfRkHkjO/5BKQ2NnieFgPVWWjm4ud4dclasLFzVGqZu6tbq3YWLmqLDWS6t2PbFdhqnl17cqhXW5tdjaPXOXN+LKtUaoBtkvLq3YWLmqNUA2XtyrdhYuaoURrLy6osSDIsqtarUW38KfDqV5Vk2radWze9R4Lq+bN6abRmii0iaYY7B7nv3DZmccBV1dYCNSPzPx8oADQqsQABEAARAAEQABEAARAAEVFRXTXRkIaJ0RDMKOrUmvDv2mb/wAjZ2Y5NxI42I9CrHR7sXDrrFYdj2xXYu0cLUn7MW/78DLsu86rASdwxPJWRIAuVjWKo027tK9t9luN3hMie+o7dFv8Tc0aMYK0UoroXdJoOeXGU6g4nhkPM37lDlrmNwbj6KE2PbExq4SlL2oRfdt8TFnktF8Gu9n1J/j9QP0c08R8+q8FfGcwVF7CxJXkVLg5r++wwsflGpHWg9a2+9rrqRJtEVcTC9wFhuN+S6tq4nGwK09hYuWFir1lJVuxewlPWnBc5L6lNjaZDhrzc3uj8WSqKIzTsjG08szyBXKWQMYXKRgA/RSqBAAeIgACIAAiAAIgACIAAiAAIhYqYaEndxTZfB8ua1ws4XXoJGSsRw8FuhFdyL4B60BosEJJzQAHq8QABEPGj0BFp8dlCfrU7RfLg/oaatQnB2lHV/vmTEonFPY0n27ijrdBQzkujOofC7eGzy4KXFVvZgcRzUQpUnJqMVdslODw6pwUV3vm+LKqeGhF3jFJl86aL0UKS7nG7jhfcPvbw8fmoqfy2AyQAFwoyAAIgACIAAiAAIgACIAAiAAIgACIAAiAAIgACIAAiAAIgACIAAiAAIgACIAAiAAIv//Z;fontColor=#FFFFFF;" parent="1" vertex="1">
                    <mxGeometry x="880" y="396" width="120" height="120" as="geometry"/>
                </mxCell>
                <mxCell id="11" value="" style="endArrow=classic;html=1;fontColor=#FFFFFF;labelBackgroundColor=none;strokeColor=#FFFFFF;strokeWidth=2;" parent="1" edge="1">
                    <mxGeometry width="50" height="50" relative="1" as="geometry">
                        <mxPoint x="630" y="546" as="sourcePoint"/>
                        <mxPoint x="440" y="556" as="targetPoint"/>
                        <Array as="points">
                            <mxPoint x="630" y="556"/>
                            <mxPoint x="540" y="556"/>
                        </Array>
                    </mxGeometry>
                </mxCell>
                <mxCell id="14" value="Scrapes" style="edgeLabel;html=1;align=center;verticalAlign=middle;resizable=0;points=[];fontColor=#FFFFFF;labelBackgroundColor=none;" parent="11" vertex="1" connectable="0">
                    <mxGeometry x="0.6941" y="-1" relative="1" as="geometry">
                        <mxPoint x="69" y="-10" as="offset"/>
                    </mxGeometry>
                </mxCell>
                <mxCell id="12" value="Configuration" style="outlineConnect=0;dashed=0;verticalLabelPosition=bottom;verticalAlign=top;align=center;html=1;shape=mxgraph.aws3.config_rule;fillColor=#759C3E;gradientColor=none;labelBackgroundColor=none;fontColor=#FFFFFF;strokeWidth=2;" parent="1" vertex="1">
                    <mxGeometry x="632.52" y="596" width="55.5" height="72" as="geometry"/>
                </mxCell>
                <mxCell id="15" value="" style="endArrow=none;dashed=1;html=1;fontColor=#FFFFFF;labelBackgroundColor=none;strokeColor=#FFFFFF;strokeWidth=2;" parent="1" edge="1">
                    <mxGeometry width="50" height="50" relative="1" as="geometry">
                        <mxPoint x="660" y="586" as="sourcePoint"/>
                        <mxPoint x="660" y="546" as="targetPoint"/>
                    </mxGeometry>
                </mxCell>
                <mxCell id="16" value="" style="endArrow=classic;html=1;fontColor=#FFFFFF;labelBackgroundColor=none;strokeColor=#FFFFFF;strokeWidth=2;" parent="1" edge="1">
                    <mxGeometry width="50" height="50" relative="1" as="geometry">
                        <mxPoint x="870" y="456" as="sourcePoint"/>
                        <mxPoint x="730" y="456" as="targetPoint"/>
                    </mxGeometry>
                </mxCell>
                <mxCell id="25" value="Visualizes" style="edgeLabel;html=1;align=center;verticalAlign=middle;resizable=0;points=[];fontColor=#FFFFFF;labelBackgroundColor=none;" parent="16" vertex="1" connectable="0">
                    <mxGeometry x="-0.2727" y="-2" relative="1" as="geometry">
                        <mxPoint x="-13" y="-9" as="offset"/>
                    </mxGeometry>
                </mxCell>
                <mxCell id="17" value="Configuration" style="outlineConnect=0;dashed=0;verticalLabelPosition=bottom;verticalAlign=top;align=center;html=1;shape=mxgraph.aws3.config_rule;fillColor=#FF9933;gradientColor=#ffffff;labelBackgroundColor=none;fontColor=#FFFFFF;strokeWidth=2;" parent="1" vertex="1">
                    <mxGeometry x="912.25" y="596" width="55.5" height="72" as="geometry"/>
                </mxCell>
                <mxCell id="18" value="" style="endArrow=none;dashed=1;html=1;fontColor=#FFFFFF;labelBackgroundColor=none;strokeColor=#FFFFFF;strokeWidth=2;" parent="1" edge="1">
                    <mxGeometry width="50" height="50" relative="1" as="geometry">
                        <mxPoint x="939.73" y="586" as="sourcePoint"/>
                        <mxPoint x="939.73" y="546" as="targetPoint"/>
                    </mxGeometry>
                </mxCell>
                <mxCell id="19" value="&lt;font color=&quot;#ffffff&quot;&gt;Prometheus Metric Registry&lt;/font&gt;" style="sketch=0;outlineConnect=0;fontColor=#232F3E;gradientColor=none;fillColor=#D45B07;strokeColor=none;dashed=0;verticalLabelPosition=bottom;verticalAlign=top;align=center;html=1;fontSize=12;fontStyle=0;aspect=fixed;pointerEvents=1;shape=mxgraph.aws4.registry;labelBackgroundColor=none;" parent="1" vertex="1">
                    <mxGeometry x="383.18" y="676" width="48" height="48" as="geometry"/>
                </mxCell>
                <mxCell id="20" value="" style="endArrow=classic;html=1;fontColor=#FFFFFF;labelBackgroundColor=none;strokeColor=#FFFFFF;strokeWidth=2;" parent="1" edge="1">
                    <mxGeometry width="50" height="50" relative="1" as="geometry">
                        <mxPoint x="320" y="606" as="sourcePoint"/>
                        <mxPoint x="380" y="696" as="targetPoint"/>
                        <Array as="points">
                            <mxPoint x="320" y="696"/>
                        </Array>
                    </mxGeometry>
                </mxCell>
                <mxCell id="23" value="Updates" style="edgeLabel;html=1;align=center;verticalAlign=middle;resizable=0;points=[];fontColor=#FFFFFF;labelBackgroundColor=none;" parent="20" vertex="1" connectable="0">
                    <mxGeometry x="-0.6833" y="-2" relative="1" as="geometry">
                        <mxPoint x="27" y="2" as="offset"/>
                    </mxGeometry>
                </mxCell>
                <mxCell id="21" value="" style="endArrow=classic;html=1;fontColor=#FFFFFF;labelBackgroundColor=none;strokeColor=#FFFFFF;strokeWidth=2;" parent="1" edge="1">
                    <mxGeometry width="50" height="50" relative="1" as="geometry">
                        <mxPoint x="407" y="606" as="sourcePoint"/>
                        <mxPoint x="407" y="666" as="targetPoint"/>
                    </mxGeometry>
                </mxCell>
                <mxCell id="24" value="Consumes" style="edgeLabel;html=1;align=center;verticalAlign=middle;resizable=0;points=[];fontColor=#FFFFFF;labelBackgroundColor=none;" parent="21" vertex="1" connectable="0">
                    <mxGeometry x="-0.3667" relative="1" as="geometry">
                        <mxPoint x="31" y="5" as="offset"/>
                    </mxGeometry>
                </mxCell>
                <mxCell id="27" value="" style="endArrow=classic;html=1;fontColor=#FFFFFF;labelBackgroundColor=none;strokeColor=#FFFFFF;strokeWidth=2;" parent="1" edge="1">
                    <mxGeometry width="50" height="50" relative="1" as="geometry">
                        <mxPoint x="130" y="556" as="sourcePoint"/>
                        <mxPoint x="380" y="716" as="targetPoint"/>
                        <Array as="points">
                            <mxPoint x="130" y="716"/>
                        </Array>
                    </mxGeometry>
                </mxCell>
                <mxCell id="28" value="Provides" style="edgeLabel;html=1;align=center;verticalAlign=middle;resizable=0;points=[];fontColor=#FFFFFF;labelBackgroundColor=none;" parent="27" vertex="1" connectable="0">
                    <mxGeometry x="0.1561" y="2" relative="1" as="geometry">
                        <mxPoint x="18" y="-9" as="offset"/>
                    </mxGeometry>
                </mxCell>
                <mxCell id="31" value="" style="shape=mxgraph.cisco.computers_and_peripherals.web_browser;html=1;pointerEvents=1;dashed=0;fillColor=#036897;strokeColor=#ffffff;strokeWidth=2;verticalLabelPosition=bottom;verticalAlign=top;align=center;outlineConnect=0;labelBackgroundColor=none;fontColor=#FFFFFF;" parent="1" vertex="1">
                    <mxGeometry x="905.75" y="257" width="62" height="64" as="geometry"/>
                </mxCell>
                <mxCell id="32" value="User" style="shape=image;verticalLabelPosition=bottom;labelBackgroundColor=none;verticalAlign=top;aspect=fixed;imageAspect=0;image=data:image/png,iVBORw0KGgoAAAANSUhEUgAAAMgAAADICAYAAACtWK6eAAAABmJLR0QA/wD/AP+gvaeTAAAgAElEQVR4nO3dZ2Bc1Znw8f+5M6MZ9V4sWaNiGdkqLriBjbABY2oMDiUFAoQUNiyQ7EtI3kCSDQlLSDYk+7K72ewmSwIpBAKEJNi0YIxNccEIF1myLKtbvcyoj2bmnveDChp12ZJG0j2/T5ozd+Y+mtGje+855z4HFEVRFEVRFEVRFEVRFEVRFEVRFEVRFEVRFEVRFEVRFEVRFEVRFEVRFEVRFEVRFEVRFEVRFEVRFEVRFEVRFEVRFEVRFEVRlIkJfwdgJBkZGVav17pSFyIHqS9HinQE8UAiEAFoQDjQC3QADqANQSs6RQgK0Cj0uviourqgxX+/iXGoBJlhKSlZq6VguybEZRLWAbZpeFtdwgea4FV0/ZXy8sIDgJyG91WGUQkyA5IyViw2ebx3CsEdQNpAu0lAfKiVxZE2EsKsRAZZiAg0E2ozE2jR0BAEBpjQdYnLo9Pt1ulxe+lwealtd1HndFHb7qK6tQeP7pMPJ0H+0m3xPFVTXNw067/wAqYSZBotWZKT7NXltyV8HrAARAdbyEkMZXlcMBmxwVhM5/6Ruzw6pxq7KKzr4FhtB85u9+BTAvnfSPHD8vKCunPekaISZDpkZKyOdXvd3wF5FxBg1gRr7eFsSA0nLTpoRj9kr4QTte28W+agqL4TKSVAl5Q84eo2PVJff7RzBne/4KkEOUfJadnbNfgVEGvWNC7OiOCSpdGE2cyzHkuN08WuE40cr2kfuCCplHBPZVnB32Y9mAVCJchZSkxcE2Sx9vw/4IsAuYtC2bEynuhgi58jg8qWbp7Lr6PK0dPfIn9nC/DeffLkyXa/BjYPqQQ5C3Z7bqTQ9JcRbLSYhLx5VYJYnxrh77B86BL2nm5h1/FGXF4doEQXfLaqtOCQv2ObT0z+DmC+SUlZvkiYxG4Ea8JsZr6SlyKyF4X4O6wRhIDUqEBWLQ6lrKWbth5PlIDbIyLjXU5Hw/v+jm++UEeQKeg/rdoLrIkPs/KVTclEBvn/lGoiHl3y1+MN7D3VggQkvGbRTLedPn20wd+xzXXqCDIFUbFRTwPbwgMt3LfZPi+SA0ATguXxIdijAimq78TtlRm6lLdGhMd96HQ2lvs7vrlMJcgkpaZmXQfiEYtJcE+enbhQq79DmrLYkADW2sOodPTQ2uUORXBrRGRceHCQ/Z329lr3xO9gPCpBJqalpGd9FsS/AyHXrYhnRWKov2M6azaLiXX2CASCsuYuTcKFJrPnM5ERsRUOR+Mp1JQVH+oaZBxpaTnbdOSPgFUAKVGBfHVLKtMwGD4nVLX28IfDNdQ4XQBIOKVJfq7rvO7x2Mprag53+TlEv1sgX/X0ysjIsLq91p8CdwNEBlm4cnks61LCF0xyDNCl5P0yB28WN9PcOeIs652KsoI8f8Q1Vyywr/vcpaYuS0WYnpOwzqQJrsmOZXNGFGZtYX9UXglHq9s4WttORUv3QLJ0VJQVzN/zyWmwsL/1KVqcvnypSWpvA4uiggO4fX0iqVGB/g5r1tW1ufjhG6UAxRVlBZn+jsefZn/C0By1eEl2hklnD7BoWVwwn78wCZvZmH0Yla39U1Qkx/0bif+pBKFvdBydN4HEzLhgvrgxeVqmpc9Xh6ucfT8IXvFvJP6n+TuAOUBDMz0N2JfEBPElgydHtaOHkw1dIOm0mAL+4u94/M3wCWJPzX4A5NZQq4k7NiQZOjk8uuT3H9T03VMi+GlJSX6jv2PyN0OfYiUvWZ4jdH4ghODW9Ul+uYdjruhx6/xqf9XAmEiZxeT6ib9jmguM+xcBmHTtUQmWvPRIlsUFT+m1/7WvErcuueuiZKym+X8g/p/3qjjd1AXQ5BXadRUlJW3+jmkumP/f7Fmyp2dfJOETVrMmr1weM6XXdvV6KWro5HRTF898ULsg5mb0evT+n8RT1aXHjvk1mDnEsAki4PsAl2VGi2Dr1Lpz69p7B3/Or27jlYL5f6p+4+oE+sZC5X0pKVmr/R3PXGHIBLHbc9ORbLGaNLYsjZry6wtq++5czVqaislk4rWiJp45XIMu5++xJDUqkM0Z0QAWNPGb7OzsAH/HNBcYMkHQ9FsBsXJx6JSvH3QJh6v6Ts+/cfct/PihuwkIsLC/3Ml/7K2ksbN3gneYu67JjiU2xAqwoqOL7/g7nrnAkEPFEZFxvwKirl8ZT3Tw1P5RfnSmjf3lDtLtSdx9+w5SFidwfu55HMgvpLqpjffLHGhCkBodiBDzq8vYpAkWR9o4WOEE2BgenbDL2dpQ6++4/MlwCdI3GVH7frDVxE2rEqb8R/z7QzW09Xj4/KeuIXdZOgCL4qK5dutGqmsbOV1RQ3FDJwcrnJg0QWK4FZMfJzp6JXxQ4eC3h2r4sLqNtfZwtHF+58ggCz1unfKWbg0pVzkdjf87i+HOOYZLkIiIhCsQ3JgZF8wae/iUXnuyoZM3i5sJDwvh+/d/AYv5415ymzWAy/PWkZOZxqmyamqaHJyo62B/uZOuXi+hNjOh1tnrVXd5dA5WOHnqQDUHKpx0uLy0drkxmQQZMUHjvjYtJpD3yhy4vTIpMiI23+FoPDlLYc85hkuQsKjYLwq4YF1KOEsm+EMZ7k8f1tHU6eb2G69iw+qsUbdJToxnx5VbSIqPoaa+mdomB6XN3bxT2srRmnY6XF4AQm3maT+yOLvdHK3p4O8nm3k2v44jZ9rpduskxEXz6e1bOXLiFGXNXaxODiM4YOyv3qwJPF7JqcYuECLW6Wh8eloDnUcMN1AoYCVASuTUprFXOXooaugkKNDGp7ZfNu62JpPg2ss3ce3lm8g/XsyLr7zN3gNHqHH2UOPs6xI2awJ7pI2EMBtxoRZiQgKIDgrAatYItGhYzRomTeCV4HL3JZXLo9Pt6Sto3d5/RGjpclPf5qK2rXdojV4AVmefx46rLubyi9dhNplocbbx4q632Xm8kTs2JI37O+QtieT1oiY8utySkbE61qjTToyXIJIYCYQGTu1Xf6Oor2j6DVdvJixk8kee1TnnsTrnPNxuDwePnGDv/iPkHy+mvLqO0uZuSpu7pxTHeEKDA1mxfCkXrs0mb91KEhN8B0C//NntvPz39zhypo3mzrhxq0AGBZjIiA2iqL7T5NF7twLPTFug84jhEkQKopAQZJn82WV9m4ujNR0EBFj47PWXn9V+LRYzm9auYNPaFQC0d3ZzrLCE0soaqmsbqalvorahiZ6eXrq6e+jq6sGj64QG9/WGBQUFYjJpBNqsBNmsJMRFsygumoTYKBLiokleFE9yYiyaNna3dXRkONsvv4jnd77FnpIWblgZP27M6TFB/QWxxRpUghiEJAoY9xx8uL8XNyOl5NqtG4mJmp4So6HBgWxcm8vGtbnT8n6TdeM1W3h+51scKHdwTXbMuDeFJYX3r/Uj5OgXXAZgxIFCC8Bkxwdbu9wcrmzDrGnc9skrZzKuWbEkJYmspam4PDpHz3SMu21Uf2E8IVk8G7HNRUZMkB4Al2dy00L2lzvxSsnlF68naVHsjAY2W67duhGAD6vHn7Abaus7ukgY/1xsATNwgugTbYcuYX95KwCf2n7pzEY1i7Zt3oDFYqa4voPO/m7n0QSYB/88ptYfvoAYMUEcAG7v2H8YA07UdeDo9pC1NJXszPQZD2y2hIcGs2ZFJl4Jx2rHPs0yf3zBPx0Lj85LRkyQOgBn98QJ8n5Z39Hjk1dvmdmI/GDjmr7OgaL6sRNEfHyni2fmI5qbDJcgAlEL0DTBrFtHt4cTdX1du5dtWjMrsc2mTWtzgL7pM94xLseGXKc5ZiWoOchwCSLRTwE0dYyfIPnVTnQJeetWEhK88IrH2ZMSWJwQS1evl4qW0Qcrh1ynOWctsDnGcOMgEq1QIKmfIEEGukC3bV436vOFJRWUlp/hdOUZSsrP0NTipKunh46OLrq6XXi8XkKDAzGZTMRGRxAfE0lSQiwZaclkpiezNM2OaZIVVLxeSXFZJcWlVZSUVXGmrpG6xlaaWhx4vV7aO7sxm0wEBVoJCQkiyGYjJiqcjNQkltiTSE9NYnlGyoj3XX9+FtW73qa0qYv06JH/BJw9g2dWhj2CGC5BdCGOmKSkrGnsKR4dLi/lLV2YzWYuOD971G1+/exO3nrvw3H31dbRVxy91dlOcWmVz3OhwYFcseUCvnn3LeO+x49+/nte3bOfjs7xp6S4PR6c7R6c7X2rPp8qq+L9w32FES/ZeD4/fujuEa9ZlbWUF3e9TeUYR5CW/tNQAfXj7nwBM1yCVJceK0hJy3a2uzzhjZ29xI5yw1RRQwe6hDXZSwkKHL0D5x8+dz17D+Tj7T+Bt1kDiIwII8hmJTDQhkkT9Pa6aevsoqGpFbfb9zq3o6uHvPUrJow3b/0KXti1Z0S7xWImLiaSsOAgAgIseHVJd3cPXT0uWh1t9Lj6/rhNJsE/fO76Ud97xbIlAFS0jp4gjf1HWQmGLeJguAQBdGAfcO2phk5i00YmyOn+o8vG/gvZ0aTbE/n+/V/CZrOSkZI0YmLgcPVNLRSXVlN4qoz3DheQmZ48qWkmG9fmsuPKizlZWsXGNdlknZfG0rTFxMeMfy99TV0TpyqqcfX0km5PHHWbpEWxREeG09zqxNHtIWLYBM6BGr0SeWTCQBcoIyYIQvKCFFz70Zl2NqZFjni+tK8+FCuXLx33fbZtXj/pfcbHRBEfE0Xe+hV8+ZbrphTvt+753JS2B0hMiJkwaQFyl6ez5718Klq7iQj0Xelg4OLdLHTDJojherEAdF37C9Bb0tA5YiS5261T3+bCbDJxXnqyfwKcRUtT+37H4T1ZNW0u2vou0utKS4tKZj+yucGQCVJZeawVKf7ulXCw0reDprbNhQQy0hZjtc6PVWzPxZLUvtOv4QkyUNoI+Bt9p6WGZMgEAdCEfBbg7RIH+pCBsrq2vvX6Bv6zLnRL7H0TdQfWKYS+VTwPlA8MfYjA+PgVU6vLuoAY8hokLS17pRceEUBrVy+Hq5ys6y/gUNfe94eSmBA95fft6OzmP596kd3vHsbtdrM1bx333nkToTM00Dgd+1ucFIfFYqar10OHy0uI1URxfSeNHb1oQui6lLfagrx5yUuWX1t1utBwC+oY7giSnJGzRIc9AgYPEX873oC7v7vW0b+Q5VSntrs9Hr76z//G8zvfosXRRntnN39+dS/3PPQ4bs/0T2Warv2ZNY3UxYsAqO//57CvtG8Omi7lwN9HiqZr+9LSlo8cbVzgDFfVJCo85hcgfCZXuTw6Xl2SGR/MvtJWWrvc3LJjGwmxky9LWnmmnsvz1nHrDVdQXl1HVU0DAI0tDsJDQwZraE2X6dzfkYISSsqrSY0OxKRpvHS0HiHE8KLcNilFvNPR+MJ0/h5zneGOIBLhMzX3sk1r0TTB7lMtFDd20tbT16sVGTG1xV3TkheRmBBDfEwkD97r2y376p795xj1zO4vPaXvQr2h3c1LR+vRJWy/Io+bPzHsHhjBJecU9DxkuAQBQoY++N79d/LJq7Ygpeyvmth3imULsE7pTRuaxp6uVFY1/dU7p3N/9qS+GwYPVjo42dBJcFAgd9+2g3+844bhmxpuSWgjJohPfadWRxv/9MWbyVm2BEe3Z3AGa1Dg1BLkx7/4PfVNLdQ3tfAvT8x8nbXp3F9ifN+A4sCY0H133khkeCgtjhG35BquNpbxerEkZxAMXmyWVdWyKD6GHz/4Fe76v/9KVU3fvDybbWpFrRsaW7j29m+M+lx68qJzCHjm97co/uMR94s3rGTHlRcDUFE94khUPaU3XgAMdwQRwnft75LyMwDERkfwyx9/g+zMdNasyMRsmlr/xZWXXDDmc1eM89zZms79hYcGs27FcnKXp/ODB740WNC7pOyMz3ZSSMN18xruCCLh6NDHBcVlgz9HR4bzm58+eFbve9M1l/D6ngMUnCr3ac8+L40br5n+W3ane38//+H9I9qOF5f6PNZ0zXBzsgzXzRsWFS8FfHngcYuznVs/ue2c1/IwmTQuy1tHe0cXZ+oasQZYuOayjTx8/xcItE3temYu7E/Xdf71F8/gcn18Y5k0ad8z2noh82uFl2lxkykl7UQTMFgi8Zn/+B4ZaYatjTaqU2VVfPaeh4c2OSrKsmLgTxNXu1hADHcN0v8FvzO05YNjhl3+YkwfHPH9TCS8bbTkAEMmCCB4a+jDw8eK/BXJnHX4uG+CaJKRtzUagCETROjsHvo4/1jx4K2zSl+RiI+OFw9vVgliFOXlBUeB5oHHzvZOjp887ceI5pbjJ08PFn/o19z/mRmOIRME0JG8NrRhz/v5/oplzhnxWfR9Voa8acqoCYJA/HXo493vHfZXKHPOW+/7ljOSQr7kp1D8zrAJYjb3vAIMdvLX1DWRXzDivNtw8o8Xc6bWZ8qVK8DU+9pY2y90hk2QkpKSNsDnKPL0n171UzRzx1PDPgOB+Gv/Z2VIhhtJHyo8Kq5WwJ0Djytr6gHJ0nQ71oCFX7BhqLaOLn797E7+8vo+n3apcZeztbFqjJcteAYcSfeVkpr9LoKNw9vjoyN58L7bZn0Nwdn2zqGj/PA/nh7r/pJ3K8oKLprtmOYSw55iDZBm+WVgxCIZ9c2tPPrvv/VDRLPrsX//7VjJ0SG9H89ZMyrDJ0hlyYkCKeT1QMvw5+qbRjQtOPXNraM1N6NxXWVlwYnZjmeuMXyCAFSWnnhT93hyheBH/o7F36QUP0TXcytOF+yeeOuFz/DXIMOlpGX7zDk5tPNX/gplVqy75os+jyvKCtTfxBDqCKIo41AJ4id3fv1R7vjaIzS1jF2dpLHZwe1fe4Qvf+PHsxiZMpThbrmdK9xuL0UlFXz6H7/Hpz5xKRdvWEViQixSSmrqGtl74COee/ktnG0dZC1N9Xe4hqXON4eZrWsQZ1sHD//sSfYdHH+S7MUbVvLdf7qT8NCZqR+trkHGp44gfhIeFsJP//k+jhed5vlde8gvOEVza19F9ZioCFZlL+Wmq7eQnTm9JUuVqVEJMlIjMFi5uqHJQVxMxDibn5ucZUvI6V8rcLaNMs7TPtp2RqYu0kfyGRw7dKTQX3HMuEP5I343ww8MDqcSZBghpM/U7t/9+TWkXHi340op+d2fXx/Wxp/9FM6cpRJkGCG1Jxlyn0hJWTVv7D3kx4hmxqtvH+B0hU/lRJfFZPq1v+KZq1SCDFNWdrxewjND2x7/nz/S1tE1qdd/9p6H+eaj/0VFdf2MxDea8qo6vvnof3HLvQ9PvDF99+D/7H+e9W2U4g+nTx9tmIHw5jVD3w8ylrDQqINC0+4CAgC6e1w0tTi4ZOP5E77W1evm+Z1v8dzfdlN4qoyoyDCSEqa2WtVkHTpSyOP//Qw//eWzVNc1cuuOKya1cM6/PPEUx0/6lBVtR+o7nM6mEbOajU4lyCja2prbI6PiJLB1oO1UWTXxsVEsW2If97W5y5awbfN62to72fP+h7z89/d4fe8BmlvbCA4KJCoiHE07u6EGr1dSdLqC53e+xY9+/jv+8Oc3qKlt5MpLNvDo/72LTesmvnflxVfe5jfP7RrWKr5TUX7CsLfVjkcNCo1hzZo1luaWnnclrBtos1otPPmTBye9fnplTT1PPruTN/Yeore3b2GekOBAVmUt5bz0ZFIWJ5CSFE9EWCghwYEEBdkA6OrqoaOzG0dbO+XV9VSeqePk6So+OnGKzq6+5ZoDAixs27yez998NfbE+EnFU1RSwRceeGwwln4HYqJseYcPH3aP9TojUwkyDrs9N12Y9HwgbKAtNjqCJ3/yLRLiJr8KbntnN2/sPchb73/IR8dP0TOkIPRU2KwBrM45j0s2ns/WvHVTWs22vqmVL9z/w+FjHx1eoZ9fXVp46qwCMgCVIBNITc/+jJT8YWhbuj2JX/7rNwkLCZry+/X2ujlaeJqTpZWUVdZQVlVLq6Odjq5uOvqPDiFBgYQEBRIVGUZa8iJSkxeRmW5nZVYGFsvUx3ad7Z186YHHRizNJiSfKS8v+OOU39BAVIJMgj0151Eh5LeGtq1YvoQnvv81goNmZg306dLR2c293/03jheNqBz5LxVlBd/2R0zzibpInwSno2F3RGR8BrBioK2+qZUD+Se49KK12KxTW65ttrR3dnPvd35GgW+PFQL5XEXZiX/0U1jzikqQSYqMCNqFCMgDBueeN7U4+eBIEZduPH/OJYmzrYN7vv1TTgxbgQrYYzH13tDS0uLxR1zzjUqQSXI4HJ7gIPtzJotnI5A20N7Y4mD3u4e54PwcIsJDxnmH2VNV28DdD/1kcP3FId7tCuKa6pMnu/0R13ykEmQK2ttr3cGB9j+ZzJ5NDDmStHV08dqe/WRlppIUPzODgpP10YlT3PPQz6hvHDFT911bgOeqysJCNRg4BSpBpqi9vdYdkBT3gtnNGgEZA+2uXjev7TmIzRpATmb6Oa95OFW6rvPbF17je48/SVdPz/CnX+0K4jqVHFOnEuQsdDU29jodW56JiGiMRXw8kKhLyYH8ExwpKGHdqiyC+wf+ZlqLo41vPfbfvLBrD/rwmcdSPhkTHXhLyZEjI7JGmZjq5j1HKWk5D4J8hGGfpclk4tqtG3no3ttm7GgipeSRJ55m55vv4fWOWD5QF4KHyksLHpuRnRuEOoKcI6ejYV9kRNwBBFcAgzeOSyk5ebqS9w4dY0nKYuJjI6d1v4UlFXzrsV+wd/9Ho92v0qAhbigvK3hqWndqQOoIMk0WL16ZpFm8fxDIi4c/p2kaV27ZwC07tk16HtdYTp6u5Pcvvs5rew+i6yMXfZKIvdLj/kxV1cmac9qRAqgEmV5btphTKhp9Jv3dcfPV/OGlNwYnCJ6fex6f3r6VTWtzCZjkEgu9vW7eOXSUP/71TfL7F9cMCLBwy/WX8+thM3MrUmIt7NmjxjimiUqQaTZa2aC6hmb++Nc3+cvr++jo7BuCsFkDOD83kwtWZ7Msw05URPhgcYj6xlZanW0UllSw/8MC8o8XD05wDA0OZPu2PD69/TIS4qJV2Z4Zpj7MaTZeXa2uHhev7H6fl17bR3Fp1ainSKPRNI3M9GSuuyKPqy69kCCbdfA5lSAzS5X9mUVBNis3XL2FG67egsPZwYGPTnAwv4DT5Wc409BEZ2dfT2xIcCCJ8TFkpCaxflUW61dlzZlReqNRCeInEeEhXLF5PVdsXu/vUJRxqKIN0yg5OccPFeB8z6js9lxVinEaqQSZJtnZ2SGaWb48tM1mtY61+bSxWX17woSmv7xixYqZKeRrQCpBzlFaWtbNKWk5H3R04QCWDX1uTe55M77/1TnD9iFY7mzXnSlpOR+kpi7/9IwHsMCpHo+zkJqavUoXPCzgcqD/lkLJ0I/TZDKx6+mfEBUROqOxNDvauea2r4821QQAgXSBthfp+k55+akDMxrMAqQSZJKSktZHm62d35dws5AyZryPzqTB4//8VTbN0hLS+w4e4es/+M8Juo0lUogmAX9y99i+W1NzuGlWgpvn1Fys8ZlTU7PvC4uMe1ozuR8TsF5A0ET/VySCDyvqOVLbSo/QiA8PxnYWxRbG0+FyU+XVOI6N8rgU4jbm0VRcTHfrWCtWCfpiZ51m9jwQHhV3a2R4nNnhaPwAmNyAjAGpI8goUlNXXCmF99sSNogJusIFYA0Lw75pEzGZmVQfOsCZQx/gHVp7SgjC4+NJTE8hMTGexNhIkmIiSY6LJiLQQogtAKvZQmSwFU3TcHS5cOs6ZmsAHnMAnbrgcEExBw4do7rqDHWVVbQ3NBG6KIFrn/g3n3h6O7o49uyzVL77Pq42JxOV3ZbgEXBASNMj5eVHXz3Lj2zBUgnSLy1tdYoX1yMaYrscUgdrLCaLhbjsbFZ97hYiUnyrLXpcvTSeOEHtkaM0FhbiqKhE90x9elR48mKu/tnjALxwx530dnQOPqdZLCRvWM/Gr9035us76uo5+txz1Bw6jLt7EnfZCly6zm6rOeDrJSX5aikEDJ8gNwXYlxz/mtBN94JcPNHWQtOIsCezbPsnSL04b9J7kV4vjsoqHBUVdDQ00N3cQmdzMz0tLXhcLjw9LnSvB3dXN1LXsQQGIUyCuOws8h74OgBVBw7irKgkLHkxEXY7IYsS0LTJd0KeOXSYky/vpKGoCDnGBf2QiEFqLeB9KiRY+25BQYFh70Q0ZIIkn5e9TusVT4Bcj5igq1tAcEwcGVsvYdl116OZ53fPuO7RKXzpJU6/uZvOpkYmcQ6mgzggdXFvZeWxw7MS5BxiqARZvDh3s8msP4UgZaJtA4KDSd6wntzP3ExgZNRshDfruluaOfrsc1TtP4i7cxLLO0jKda92e1XVsb0zH93cYIgESUxcExNgdT0vkZvH204zm4jNXEbOzTcSl501W+HNCc2nSznxwp+p+SgfvXf8OtYCeSTQJq8qLCysHXfDBWDBJ4g9I+dWzSuflDDq3UlCCMKTk8m89irSL710tsObk0rf3E3Rzl20VVWPt/ycW0jv7eXlRc+MtcFCsKATJDUt61mJuHm057QAC6l5m1h92+0EBE+9CLUR9HZ0kf/001Tseweve/Sjiob8fVnZiVtnObRZs2ATJCU15z2EvHB4uzCZWLptK6tvvw3NrGb7T4bu8fDhb56i5I03R+0BE7CvvKxgxL34C8GCTJDUtKyPJGLl8PaIlBS2fPdBAsNnbt3zhazb6eDtHzxKa3nFyCel+LCi/Pia2Y9qZi24qSbJqdm7hBAX+bYKsq6/jose+D9YbLNTzG0hsthsZGy7HN3jobGoyPdJwaLIyNg1DkfjgromWVAJkpqa+5gQ8g6fRgEX3P0PLLtuu5+iWngScnOJsNup2n8AfC7iRWZ4VJzmbG3c47fgptmCSRC7PXcNmv4UQ08bBWz4yl2qd2oGhC9eTMzSpZTve8enXUjyoiLjX3I4GmZvHewZNL+HhYcQZvkKw66p1nzhTpUcMyhh1UxCFMcAAAIiSURBVEouuPsrvo0CTSJf909E029BHEFSU7MeBa4Y2pawcgVrv/B5P0VkHJFpqbSWltFe4zNmGBIeFS+crQ3z/lRrAfRi3RSQklbYDnJwiSdLcBCf/N9foZkXRP7PfbrOi1+8C1db29DW3oqyrFD409kt6TtHzPtTrJQlJx4fmhwAF957j0qO2aRp5H3j/uGtASmpx+d9Zfl5nyB48TmPCktcRNLaBdcdP+fFLltGRIrvHFAptC/7KZxpM68TJC1t2TbEx0sOCOCC++7xY0TGduFXfT97AcGJacsv91M402JeJ4jE/ODQx9bISKIzMsbaXJlhEXY7QdHRPm0WqX1rjM3nhXmeIL5zrdIv3eKvUJR+GVsv820QbPJPJNNj3iZI0pLsS4DBi3MhIHvH9X6MSAHI3HHd8L7RgOTk3Hk7kXHeJohJ+k5jt4aFY1bzrPzObDZji/Bdbk4L0G/yUzjnbN4miCbxOb2KWuKHutHKqGIyfL8LocvJV7iYY+ZtgkikT59i3PJMf4WiDBMz7LuQiAlrAMxV83Yk3Z6e4xZSqjue5gEp8FSWFkxuQcY5Zt4eQVRyzB9Czt+FmuZtgiCZqPqZMkfIefxdzecEeVglydwnJV4h+Z6/41AURVEURVEURVEURVEURVEURVEURVEURVEURVEURVEURVEURVEURVEURVEURVEURVEURVEURVEURVEURVEURVEURVEURVFm0v8Hw3klExnCcGAAAAAASUVORK5CYII=;fontColor=#FFFFFF;" parent="1" vertex="1">
                    <mxGeometry x="912.25" y="127" width="60" height="60" as="geometry"/>
                </mxCell>
                <mxCell id="33" value="" style="endArrow=classic;html=1;fontColor=#FFFFFF;labelBackgroundColor=none;strokeWidth=2;strokeColor=#FFFFFF;" parent="1" edge="1">
                    <mxGeometry width="50" height="50" relative="1" as="geometry">
                        <mxPoint x="945" y="327" as="sourcePoint"/>
                        <mxPoint x="945" y="387" as="targetPoint"/>
                        <Array as="points"/>
                    </mxGeometry>
                </mxCell>
                <mxCell id="38" value="Can Query And Visualise Using Grafana" style="edgeLabel;html=1;align=center;verticalAlign=middle;resizable=0;points=[];" parent="33" vertex="1" connectable="0">
                    <mxGeometry x="-0.1798" relative="1" as="geometry">
                        <mxPoint x="-3" y="5" as="offset"/>
                    </mxGeometry>
                </mxCell>
                <mxCell id="34" value="" style="endArrow=classic;html=1;fontColor=#FFFFFF;labelBackgroundColor=none;strokeWidth=2;strokeColor=#FFFFFF;" parent="1" edge="1">
                    <mxGeometry width="50" height="50" relative="1" as="geometry">
                        <mxPoint x="945" y="217" as="sourcePoint"/>
                        <mxPoint x="945" y="247" as="targetPoint"/>
                    </mxGeometry>
                </mxCell>
                <mxCell id="36" value="" style="endArrow=classic;html=1;dashed=1;strokeColor=#FFFFFF;" parent="1" edge="1">
                    <mxGeometry width="50" height="50" relative="1" as="geometry">
                        <mxPoint x="895" y="287" as="sourcePoint"/>
                        <mxPoint x="655" y="385" as="targetPoint"/>
                        <Array as="points">
                            <mxPoint x="655" y="287"/>
                            <mxPoint x="655" y="335"/>
                        </Array>
                    </mxGeometry>
                </mxCell>
                <mxCell id="37" value="Can Query Using PromQL" style="edgeLabel;html=1;align=center;verticalAlign=middle;resizable=0;points=[];" parent="36" vertex="1" connectable="0">
                    <mxGeometry x="0.2556" relative="1" as="geometry">
                        <mxPoint x="102" as="offset"/>
                    </mxGeometry>
                </mxCell>
            </root>
        </mxGraphModel>
    </diagram>
</mxfile>